<svg xmlns="http://www.w3.org/2000/svg"> 
    <symbol id="boy" viewBox="0 0 466.972 466.972">
        <g>
            <path d="M398.585,68.387C354.486,24.287,295.852,0,233.486,0s-121,24.287-165.1,68.387C24.288,112.486,0,171.119,0,233.485
            s24.287,121,68.386,165.1c44.1,44.1,102.733,68.387,165.1,68.387s121-24.287,165.1-68.387c44.099-44.1,68.386-102.733,68.386-165.1
            S442.684,112.486,398.585,68.387z M101.619,412.732c14.09-24.389,34.85-44.546,59.53-57.911
            c17.623,26.034,44.328,41.431,72.335,41.431c27.976,0,54.665-15.367,72.292-41.351c24.675,13.38,45.436,33.519,59.531,57.863
            c-37.977,28.048-83.733,43.207-131.821,43.207C185.379,455.972,139.605,440.801,101.619,412.732z M113.311,234.298
            c0.416,11.914,2.022,23.461,4.682,34.472c-3.149-0.376-6.158-1.565-8.747-3.538c-3.822-2.912-6.281-7.139-6.925-11.901
            c-0.643-4.762,0.607-9.489,3.52-13.312C107.808,237.437,110.384,235.496,113.311,234.298z M284.489,181.489h-64v-1.168
            c0-17.842,14.354-32.356,31.996-32.356c17.647,0,32.004,14.515,32.004,32.356V181.489z M220.489,192.489h64v13h-64V192.489z
                M252.485,136.965c-23.708,0-42.996,19.449-42.996,43.356v25.168h-83.99v-41.94c0-48.411,39.385-87.796,87.796-87.796h40.435
            c48.41,0,87.795,39.385,87.795,87.796v41.94h-46.035v-25.168C295.489,156.414,276.198,136.965,252.485,136.965z M124.627,216.489
            h217.722c0.277,3.788,0.434,7.66,0.434,11.604c0,74.096-49.031,134.377-109.299,134.377c-60.263,0-109.29-60.281-109.29-134.377
            C124.194,224.147,124.35,220.275,124.627,216.489z M361.86,240.02c2.912,3.822,4.162,8.55,3.52,13.312
            c-0.644,4.763-3.103,8.989-6.925,11.901c-2.793,2.129-6.072,3.359-9.492,3.621c2.693-11.124,4.311-22.796,4.712-34.841
            C356.901,235.174,359.733,237.228,361.86,240.02z M292.051,355.038c-15.403,19.34-36.219,30.214-58.567,30.214
            c-22.346,0-43.153-10.871-58.55-30.206c17.339,11.727,37.308,18.424,58.55,18.424C254.733,373.471,274.708,366.77,292.051,355.038z
                M390.807,390.807c-5.359,5.359-10.947,10.407-16.735,15.144c-15.868-26.824-39.326-48.773-67.103-62.839
            c17.361-16.236,30.958-38.073,38.925-63.25c0.573,0.034,1.146,0.058,1.718,0.058c6.306,0,12.409-2.05,17.511-5.938
            c6.159-4.693,10.122-11.504,11.158-19.178c1.037-7.674-0.978-15.292-5.671-21.451c-4.226-5.546-10.171-9.303-16.914-10.754
            c-0.162-5.15-0.557-10.18-1.171-15.026v-44.024c0-54.477-44.319-98.796-98.795-98.796h-40.435
            c-54.477,0-98.796,44.319-98.796,98.796v41.94h-78.01c-3.037,0-5.5,2.463-5.5,5.5s2.463,5.5,5.5,5.5h77.106
            c-0.141,2.07-0.255,4.156-0.32,6.271c-6.442,1.56-12.111,5.247-16.184,10.592c-4.693,6.159-6.708,13.777-5.671,21.451
            c1.036,7.674,4.999,14.484,11.158,19.178c5.102,3.888,11.204,5.938,17.511,5.938c0.333,0,0.667-0.022,1.001-0.034
            c7.956,25.134,21.523,46.937,38.844,63.161c-27.771,14.047-51.221,36.008-67.078,62.869c-5.773-4.726-11.345-9.762-16.691-15.108
            C34.143,348.785,11,292.913,11,233.485s23.143-115.299,65.164-157.32C118.187,34.143,174.058,11,233.486,11
            s115.299,23.143,157.321,65.165c42.021,42.021,65.164,97.893,65.164,157.32S432.829,348.785,390.807,390.807z"/>
            <g>
            <circle cx="171.226" cy="255.168" r="10.831"/>
            <circle cx="295.746" cy="255.168" r="10.831"/>
            </g>
            <path d="M233.482,316.284c8.561,0,16.472-2.355,21.163-6.302c2.325-1.955,2.624-5.425,0.669-7.749
            c-1.956-2.326-5.426-2.624-7.749-0.669c-2.04,1.716-6.953,3.72-14.083,3.72c-7.125,0-12.035-2.004-14.075-3.72
            c-2.324-1.955-5.794-1.657-7.749,0.669c-1.955,2.324-1.656,5.794,0.669,7.749C217.018,313.929,224.926,316.284,233.482,316.284z"/>
        </g>
    </symbol>
    <symbol id="boy2" viewBox="0 0 466.972 466.972">
        <g>
            <path d="M233.482,311.854c6.747,0,13.133-2.563,17.982-7.219c2.191-2.104,2.262-5.586,0.159-7.776
            c-2.104-2.191-5.585-2.262-7.777-0.159c-2.791,2.679-6.471,4.154-10.364,4.154c-3.888,0-7.565-1.476-10.355-4.154
            c-2.191-2.103-5.672-2.032-7.777,0.159c-2.104,2.19-2.032,5.673,0.159,7.776C220.357,309.291,226.74,311.854,233.482,311.854z"/>
            <g>
            <circle cx="171.225" cy="237.831" r="10.831"/>
            <circle cx="295.746" cy="237.831" r="10.831"/>
            </g>
            <path d="M398.585,68.387C354.485,24.287,295.852,0,233.486,0s-121,24.287-165.099,68.387S0,171.119,0,233.485
            s24.287,121,68.386,165.1s102.733,68.387,165.099,68.387s121-24.287,165.1-68.387c44.1-44.1,68.386-102.733,68.386-165.1
            S442.685,112.486,398.585,68.387z M103.456,239.067c1.975,7.661,4.609,15.129,7.92,22.326c-4.763-2.694-8.259-7.508-9.036-13.267
            C101.916,244.996,102.333,241.889,103.456,239.067z M212.15,107.354c-31.979,3.524-36.832,26.2-37.487,45.562
            c-0.428,12.673-0.293,31.911-0.186,41.637c-19.46-2.108-55.282-10.009-57.414-29.65c-0.454-12.25,3.314-22.366,9.534-34.696
            c13.998-27.736,34.831-45.994,61.92-54.266c20.823-6.357,39.225-4.578,44.03-3.45c17.935,4.2,29,10.233,33.272,12.882
            c0.999,21.364-0.08,44.956-3.321,58.522c-1.413-3.876-3.277-8.174-5.745-12.44C246.429,113.61,231.003,105.278,212.15,107.354z
                M249.675,141.44c-2.61-1.728-5.52-3.402-8.722-4.877c-12.322-5.679-30.984-9.27-53.503,2.269
            c3.269-13.025,11.139-18.917,25.906-20.544C233.133,116.119,243.965,129.346,249.675,141.44z M124.614,191.246
            c-5.56,18.898-5.268,44.831-3.927,64.046c-6.91-15.577-10.495-32.471-10.495-49.875c0-7.704,0.969-15.438,2.955-23.525
            C116.26,185.521,120.206,188.614,124.614,191.246z M134.237,279.143c-0.83-5.783-7.334-53.696,0.409-82.93
            c20.015,8.253,43.434,9.729,45.097,9.823c1.522,0.085,3.02-0.466,4.123-1.523c1.103-1.059,1.715-2.529,1.69-4.058
            c-0.005-0.298-0.479-29.971,0.102-47.168c0.008-0.251,0.022-0.491,0.032-0.738c42.209-27.276,69.664,8.133,70.828,9.675
            c0.003,0.004,0.011,0.006,0.014,0.01c0.484,0.645,1.106,1.188,1.84,1.573c1.546,0.811,3.387,0.837,4.958,0.076
            c0.119-0.058,12.03-5.77,26.653-6.261c18.92-0.622,33.075,7.675,42.119,24.698c13.071,24.605,1.992,89.966,0.887,96.24
            c-17.751,47.828-56.759,78.71-99.491,78.71C190.995,357.27,152.088,326.619,134.237,279.143z M276.895,87.533
            c22.912-0.602,48.162,6.998,55.64,30.399c4.649,14.563,9.411,27.604,14.556,39.86c6.332,15.11,9.542,31.133,9.542,47.624
            c0,15.991-3.029,31.56-8.883,46.071c2.375-24.107,3.334-56.883-5.934-74.328c-13.274-24.986-34.014-30.57-49.893-30.57
            c-0.782,0-1.552,0.013-2.309,0.038c-6.364,0.214-12.253,1.268-17.159,2.514c1.993-6.891,3.616-17.019,4.311-32.16
            C277.313,105.107,277.107,93.928,276.895,87.533z M363.691,237.808c1.545,3.152,2.187,6.74,1.703,10.323
            c-0.852,6.327-4.861,11.421-10.262,13.914C358.767,254.252,361.629,246.145,363.691,237.808z M237.489,380.396l25.05,22.808
            c1.272,1.157,3.009,1.651,4.704,1.341c1.691-0.313,3.139-1.399,3.912-2.937l27.85-55.366c29,13.864,53.028,36.7,68.363,64.971
            c-37.33,28.243-82.385,43.878-129.879,44.71V380.396z M240.233,368.018c14.544-0.984,28.579-5.13,41.538-11.995l-17.186,34.167
            L240.233,368.018z M225.426,367.928l-24.113,22.216l-17.276-34.775C196.934,362.409,210.922,366.748,225.426,367.928z
                M194.723,401.603c0.77,1.55,2.225,2.647,3.927,2.961c0.333,0.062,0.667,0.092,0.999,0.092c1.369,0,2.703-0.512,3.727-1.455
            l23.113-21.295v73.946c-46.402-1.424-90.358-16.996-126.907-44.656c15.225-28.125,39.025-50.859,67.749-64.731L194.723,401.603z
                M390.807,390.807c-4.728,4.729-9.641,9.204-14.706,13.449c-15.879-28.453-40.03-51.626-69.069-66.323
            c15.35-14.306,27.908-33.129,36.18-55.313c1.824-2.59,3.557-5.228,5.183-7.918c14.06-0.366,25.975-10.8,27.9-25.101
            c1.32-9.77-2.526-19.577-9.915-25.915c0.815-6.014,1.253-12.11,1.253-18.268c0-17.958-3.498-35.412-10.398-51.879
            c-5.02-11.958-9.671-24.699-14.222-38.952c-6.469-20.245-28.325-40.641-70.317-37.883c-4.41-2.879-16.844-10.053-37.64-14.924
            c-5.953-1.395-26.498-3.458-49.75,3.641c-29.647,9.053-53.344,29.742-68.529,59.831c-6.833,13.546-11.269,25.566-10.702,40.179
            c0.003,0.241,0,2.008-0.766,4.194c-0.711,2.032-1.221,3.614-1.651,5.131c-3.006,10.596-4.468,20.626-4.468,30.662
            c0,6.403,0.469,12.738,1.349,18.98c-6.928,6.365-10.384,15.727-9.102,25.202c1.862,13.799,13.38,24.227,26.971,25.058
            c1.746,2.89,3.612,5.721,5.586,8.495c8.262,21.91,20.726,40.519,35.926,54.704c-29.041,14.68-53.195,37.877-69.073,66.379
            c-5.056-4.239-9.962-8.708-14.683-13.43C34.143,348.784,11,292.913,11,233.485s23.143-115.299,65.165-157.32
            C118.187,34.143,174.058,11,233.486,11c59.428,0,115.299,23.143,157.321,65.165c42.022,42.021,65.165,97.893,65.165,157.32
            S432.829,348.785,390.807,390.807z"/>
        </g>
    </symbol>
    <symbol id="boy3" viewBox="0 0 466.972 466.972">
        <g>
            <path d="M398.585,68.387C354.486,24.287,295.852,0,233.486,0s-121,24.287-165.1,68.387C24.288,112.486,0,171.119,0,233.485
                s24.287,121,68.386,165.1c44.1,44.1,102.733,68.387,165.1,68.387s121-24.287,165.1-68.387c44.099-44.1,68.386-102.733,68.386-165.1
                S442.684,112.486,398.585,68.387z M180.584,76.681c-3.429-6.845-6.687-12.736-9.746-17.627
                c41.693,2.905,70.033,22.207,86.88,38.604c17.394,16.929,28.514,36.359,34.575,52.859c-10.926-7.204-23.814-10.839-38.517-10.839
                c-54.178,0-98.255,50.356-98.255,112.254c0,27.048,8.525,52.971,23.756,73.206c-31.165-6.533-58.606-24.907-76.741-51.816
                c-1.03-1.529-2.746-2.427-4.56-2.427c-0.235,0-0.474,0.015-0.711,0.046c-2.066,0.27-3.803,1.683-4.486,3.651
                c-1.16,3.344-2.655,7.679-4.364,12.691c-16.104-52.793-6.675-94.706-6.049-97.345c0.072-0.261,0.127-0.528,0.161-0.803
                c6.36-50.998,44.288-93.048,94.378-104.635c1.643-0.38,3.021-1.492,3.738-3.018C181.361,79.958,181.339,78.188,180.584,76.681z
                M352.632,248.272c3.164-2.106,6.455-4.625,9.67-7.642c2.565,3.681,3.682,8.207,3.077,12.7c-0.643,4.762-3.102,8.987-6.924,11.9
                c-2.782,2.121-6.045,3.346-9.452,3.616C350.603,262.185,351.825,255.316,352.632,248.272z M366.84,216.451
                c-7.407,14.906-19.981,23.135-28.293,27.188c0.691-5.364,1.394-12.521,1.57-20.379c0.508-22.548-3.483-39.253-11.862-49.652
                c-5.418-6.725-12.521-10.672-21.146-11.787c-3.211-14.697-9.812-29.918-18.924-44.093c4.474-3.669,22.461-17.128,40.868-12.953
                c13.702,3.109,25.036,15.485,33.688,36.782C375.073,171.91,376.452,197.108,366.84,216.451z M192.694,338.237
                c0.165,0.015,0.328,0.021,0.491,0.021c2.123,0,4.076-1.228,4.984-3.179c0.978-2.101,0.534-4.589-1.109-6.223
                c-18.257-18.144-29.186-44.032-30.418-71.678c1.389,0.647,2.931,1.019,4.564,1.019c5.982,0,10.831-4.849,10.831-10.831
                s-4.849-10.831-10.831-10.831c-1.324,0-2.587,0.249-3.76,0.684c6.159-48.883,42.524-86.541,86.331-86.541
                c18.413,0,33.403,6.683,44.553,19.862c1.049,1.24,2.558,1.906,4.106,1.933l0,0.013c7.359,0.125,13.002,2.747,17.249,8.015
                c6.594,8.178,9.858,22.818,9.44,42.339c-0.329,15.347-2.866,28.239-2.892,28.365c-0.372,1.861,0.241,3.782,1.623,5.083
                c1.033,0.973,2.387,1.496,3.771,1.496c0.467,0,0.938-0.06,1.399-0.181c0.369-0.097,3.301-0.898,7.585-2.766
                c-10.17,62.078-54.734,107.632-107.127,107.632c-25.072,0-49.162-10.613-68.44-29.666
                C173.951,335.55,183.206,337.39,192.694,338.237z M238.489,378.655l39.351,28.483c1.458,1.057,3.344,1.331,5.042,0.736
                c1.7-0.596,3.001-1.985,3.482-3.721l14.393-51.86c26.878,13.298,49.509,34.492,64.55,60.47
                c-36.658,27.074-80.564,42.132-126.818,43.146V378.655z M248.518,372.336c13.943-2.103,27.186-7.092,39.281-14.484l-9.918,35.737
                L248.518,372.336z M217.529,372.188l-29.323,21.352l-9.873-36.228C190.528,364.909,203.772,369.972,217.529,372.188z
                M179.69,404.126c0.476,1.744,1.778,3.144,3.484,3.743c0.594,0.208,1.209,0.311,1.822,0.311c1.147,0,2.284-0.359,3.237-1.054
                l39.255-28.583v77.346c-45.909-1.207-89.466-16.256-125.87-43.156c14.933-25.848,37.359-46.942,64.001-60.236L179.69,404.126z
                M390.807,390.807c-5.359,5.359-10.947,10.407-16.735,15.144c-15.849-26.792-39.271-48.722-67.006-62.789
                c17.322-16.168,30.928-37.963,38.888-63.299c0.552,0.031,1.104,0.056,1.655,0.056c6.307,0,12.411-2.05,17.515-5.938
                c6.16-4.694,10.122-11.506,11.157-19.181c1.086-8.073-1.277-16.207-6.48-22.447c2.482-3.228,4.798-6.823,6.812-10.849
                c11.161-22.313,9.923-50.604-3.68-84.086c-10.086-24.825-24.029-39.416-41.445-43.369c-22.395-5.079-42.967,9.32-49.585,14.609
                c-4.982-6.69-10.518-13.048-16.511-18.882c-19.73-19.203-54.031-42.095-105.395-42.095c-2.125,0-4.061,1.225-4.971,3.145
                c-0.909,1.921-0.632,4.194,0.714,5.839c3.438,4.2,7.498,10.661,11.882,18.886c-51.06,14.69-89.201,58.808-95.965,111.874
                c-1.215,5.012-12.605,56.182,11.698,118.859c0.838,2.161,2.95,3.548,5.26,3.51c2.318-0.056,4.353-1.559,5.086-3.759
                c2.195-6.583,4.267-12.693,6.052-17.911c11.86,14.928,26.555,26.975,43.092,35.574c5.185,7.176,10.889,13.655,17.016,19.385
                c-27.739,14.049-51.162,35.995-67.005,62.832c-5.773-4.726-11.345-9.762-16.691-15.108C34.143,348.785,11,292.913,11,233.485
                s23.143-115.299,65.164-157.32C118.187,34.143,174.058,11,233.486,11s115.299,23.143,157.321,65.165
                c42.021,42.021,65.164,97.893,65.164,157.32S432.829,348.785,390.807,390.807z"/>
            <circle cx="295.727" cy="247.367" r="10.831"/>
            <path d="M255.314,317.837c-1.956-2.326-5.425-2.624-7.749-0.669c-2.04,1.716-6.953,3.72-14.084,3.72
                c-7.124,0-12.034-2.004-14.074-3.72c-2.325-1.955-5.794-1.657-7.749,0.669c-1.955,2.324-1.656,5.794,0.669,7.749
                c4.691,3.946,12.6,6.302,21.154,6.302c8.562,0,16.473-2.355,21.164-6.302C256.97,323.631,257.269,320.161,255.314,317.837z"/>
        </g>
    </symbol>
    <symbol id="boy4" viewBox="0 0 466.972 466.972">
        <g>
            <g>
                <circle cx="171.225" cy="237.831" r="10.831"/>
                <circle cx="295.746" cy="237.831" r="10.831"/>
            </g>
            <path d="M233.49,282.165c-9.125,0-17.689,4.87-22.351,12.71c-1.552,2.61-0.694,5.985,1.917,7.538
                c0.881,0.524,1.85,0.773,2.806,0.773c1.876,0,3.705-0.961,4.733-2.69c2.729-4.59,7.551-7.331,12.896-7.331
                c5.34,0,10.158,2.74,12.887,7.331c1.553,2.611,4.93,3.472,7.538,1.917c2.611-1.553,3.47-4.928,1.917-7.538
                C251.171,287.035,242.611,282.165,233.49,282.165z"/>
            <path d="M199.861,223.509l-29.905-22.104c-2.443-1.806-5.887-1.289-7.692,1.153c-1.806,2.443-1.289,5.887,1.154,7.692
                l29.905,22.104c0.983,0.727,2.129,1.077,3.265,1.077c1.686,0,3.349-0.771,4.427-2.23
                C202.821,228.758,202.304,225.314,199.861,223.509z"/>
            <path d="M304.172,202.559c-1.805-2.443-5.251-2.958-7.692-1.153l-29.905,22.104c-2.442,1.806-2.959,5.249-1.153,7.692
                c1.078,1.459,2.742,2.23,4.427,2.23c1.136,0,2.282-0.351,3.266-1.077l29.905-22.104
                C305.461,208.445,305.977,205.002,304.172,202.559z"/>
            <path d="M398.586,68.387C354.485,24.287,295.852,0,233.486,0c-62.366,0-121,24.287-165.099,68.387S0,171.119,0,233.485
                s24.287,121,68.386,165.1s102.733,68.387,165.099,68.387c62.367,0,121-24.287,165.1-68.387
                c44.099-44.1,68.386-102.733,68.386-165.1S442.684,112.486,398.586,68.387z M101.644,412.75
                c14.127-24.458,34.959-44.653,59.727-58.02c8.401,32.301,37.93,55.689,72.087,55.689c34.199,0,63.669-23.342,72.083-55.636
                c24.78,13.374,45.626,33.552,59.77,57.979c-37.978,28.05-83.736,43.21-131.826,43.21
                C185.389,455.972,139.625,440.808,101.644,412.75z M223.986,372.989c1.578,0,2.997-0.668,4-1.733v2.233c0,3.037,2.462,5.5,5.5,5.5
                c3.037,0,5.5-2.463,5.5-5.5v-2.233c1.003,1.065,2.422,1.733,4,1.733c3.037,0,5.5-2.463,5.5-5.5v-0.347
                c17.221-2.6,33.323-9.615,47.503-20.078c-5.294,30.053-31.656,52.356-62.53,52.356c-30.833,0-57.251-22.344-62.527-52.395
                c14.192,10.484,30.312,17.514,47.555,20.117v0.347C218.486,370.526,220.948,372.989,223.986,372.989z M248.486,355.999v-13.51
                c0-3.037-2.463-5.5-5.5-5.5c-1.578,0-2.997,0.669-4,1.733v-2.233c0-3.037-2.463-5.5-5.5-5.5c-3.038,0-5.5,2.463-5.5,5.5v2.233
                c-1.003-1.065-2.422-1.733-4-1.733c-3.038,0-5.5,2.463-5.5,5.5v13.51c-53.192-9.017-94.294-65.265-94.294-133.104
                c0-34.923,11.029-63.783,31.896-83.461c19.442-18.335,46.206-28.026,77.398-28.026c31.192,0,57.957,9.691,77.398,28.026
                c20.867,19.678,31.896,48.538,31.896,83.461C342.78,290.734,301.678,346.982,248.486,355.999z M390.807,390.807
                c-5.355,5.355-10.938,10.399-16.721,15.132c-16.579-28.023-41.437-50.723-70.848-64.668c19.145-16.523,34.125-39.655,42.654-66.611
                c0.574,0.034,1.148,0.058,1.719,0.058c6.306,0,12.409-2.05,17.511-5.938c6.159-4.693,10.122-11.504,11.158-19.178
                c1.037-7.674-0.978-15.292-5.671-21.451c-4.228-5.548-10.177-9.306-16.925-10.756c-1.129-35.578-13.253-65.217-35.254-85.963
                c-21.521-20.296-50.895-31.023-84.945-31.023s-63.424,10.728-84.945,31.023c-22.034,20.778-34.162,50.476-35.259,86.126
                c-6.445,1.559-12.117,5.247-16.191,10.594c-4.693,6.159-6.708,13.777-5.671,21.451s5,14.484,11.159,19.178
                c5.102,3.888,11.204,5.938,17.511,5.938c0.332,0,0.665-0.022,0.998-0.034c8.521,26.919,23.477,50.022,42.589,66.537
                c-29.402,13.932-54.246,36.647-70.807,64.705c-5.778-4.729-11.355-9.769-16.705-15.119C34.143,348.784,11,292.913,11,233.485
                s23.143-115.299,65.165-157.32C118.187,34.143,174.058,11,233.486,11c59.428,0,115.299,23.143,157.322,65.165
                c42.021,42.021,65.164,97.893,65.164,157.32S432.829,348.785,390.807,390.807z M353.672,228.811
                c3.227,1.161,6.06,3.215,8.188,6.008c2.912,3.822,4.162,8.55,3.52,13.312c-0.644,4.763-3.103,8.989-6.925,11.901
                c-2.793,2.129-6.074,3.358-9.494,3.621C351.654,252.528,353.271,240.856,353.672,228.811z M113.308,229.098
                c0.416,11.913,2.022,23.46,4.681,34.47c-3.148-0.376-6.156-1.565-8.744-3.537c-3.822-2.912-6.281-7.139-6.924-11.901
                c-0.644-4.762,0.606-9.489,3.519-13.312C107.808,232.237,110.383,230.296,113.308,229.098z"/>
        </g>
    </symbol>
    <symbol id="boy5" viewBox="0 0 466.971 466.971">
        <g>
            <path d="M217.999,310.266c2.275-0.958,7.698-2.075,15.491-2.075c7.787,0,13.207,1.117,15.482,2.075
                c0.697,0.292,1.419,0.431,2.13,0.431c2.147,0,4.188-1.266,5.072-3.369c1.178-2.8-0.138-6.024-2.938-7.202
                c-4.435-1.865-11.633-2.935-19.747-2.935c-8.12,0-15.32,1.069-19.755,2.935c-2.8,1.178-4.115,4.402-2.938,7.202
                C211.974,310.128,215.199,311.441,217.999,310.266z"/>
            <path d="M238.986,314.458h-11c-3.038,0-5.5,2.463-5.5,5.5s2.462,5.5,5.5,5.5h11c3.038,0,5.5-2.463,5.5-5.5
                S242.023,314.458,238.986,314.458z"/>
            <path d="M398.585,68.387C354.485,24.287,295.852,0,233.485,0s-121,24.287-165.099,68.387S0,171.119,0,233.486
                s24.287,121,68.386,165.1c44.1,44.099,102.733,68.386,165.099,68.386s121-24.287,165.1-68.386
                c44.1-44.1,68.386-102.733,68.386-165.1S442.685,112.487,398.585,68.387z M113.308,234.299c0.416,11.913,2.022,23.46,4.681,34.471
                c-3.148-0.376-6.156-1.565-8.744-3.537c-3.822-2.912-6.281-7.139-6.924-11.901c-0.644-4.762,0.606-9.489,3.519-13.312
                C107.807,237.438,110.382,235.498,113.308,234.299z M361.86,240.02c2.913,3.822,4.163,8.55,3.519,13.312
                c-0.643,4.763-3.102,8.989-6.924,11.901c-2.794,2.129-6.074,3.358-9.494,3.621c2.693-11.124,4.31-22.796,4.711-34.841
                C356.898,235.173,359.732,237.228,361.86,240.02z M326.374,298.824c-1.704-0.794-2.697-2.127-3.256-3.321
                c-1.639-3.5-1.323-9.396,3.079-14.677c10.004-12.005,12.482-30.668,12.568-45.761l3.933-2.042
                C341.989,257.098,336.105,279.575,326.374,298.824z M319.306,232.772c-3.856-16.14-18.392-28.18-35.696-28.18
                c-18.943,0-34.579,14.425-36.505,32.866h-27.238c-1.927-18.442-17.562-32.866-36.505-32.866c-17.304,0-31.84,12.04-35.696,28.18
                l-8.322-4.32c0.393-9.214,1.514-15.938,1.545-16.115c0.067-0.397,7.079-39.82,40.4-47.568c8.631-2.011,16.64,0.318,24.48,7.111
                c16.061,13.919,39.375,13.919,55.435,0c7.841-6.793,15.852-9.12,24.481-7.111c33.175,7.714,40.333,47.18,40.404,47.592
                c0.631,3.646,1.303,9.408,1.557,16.083L319.306,232.772z M257.903,241.299c0-14.175,11.532-25.707,25.707-25.707
                c1.81,0,3.576,0.19,5.282,0.548l-21.938,44.717C261.421,256.138,257.903,249.124,257.903,241.299z M298.924,220.666
                c6.302,4.69,10.392,12.192,10.392,20.634c0,14.175-11.532,25.707-25.707,25.707c-2.408,0-4.736-0.34-6.948-0.962L298.924,220.666z
                M157.654,241.299c0-14.175,11.532-25.707,25.707-25.707c1.713,0,3.386,0.172,5.006,0.493L166.49,260.67
                C161.082,255.954,157.654,249.021,157.654,241.299z M198.451,220.506c6.428,4.678,10.617,12.254,10.617,20.793
                c0,14.175-11.532,25.707-25.707,25.707c-2.506,0-4.926-0.367-7.218-1.039L198.451,220.506z M338.346,222.888
                c-0.51-6.997-1.313-11.787-1.416-12.379c-0.323-1.917-8.375-47.064-48.755-56.455c-12.135-2.819-23.634,0.38-34.176,9.514
                c-11.887,10.3-29.143,10.298-41.029,0c-10.542-9.135-22.041-12.336-34.175-9.514c-40.38,9.391-48.433,54.538-48.751,56.432
                c-0.104,0.6-0.909,5.398-1.419,12.403l-4.257-2.21c1.463-31.595,12.35-57.777,31.719-76.043
                c19.442-18.335,46.206-28.026,77.398-28.026s57.956,9.691,77.398,28.026c19.37,18.266,30.256,44.448,31.719,76.043L338.346,222.888
                z M128.207,235.066c0.086,15.095,2.564,33.757,12.567,45.761c4.026,4.831,5.675,10.614,4.104,14.391
                c-0.733,1.761-2.164,2.989-4.236,3.696c-9.758-19.269-15.659-41.778-16.369-65.89L128.207,235.066z M149.225,273.783
                c-6.848-8.217-9.284-21.086-9.867-32.93l7.462,3.873c1.735,18.638,17.458,33.279,36.542,33.279
                c17.791,0,32.661-12.724,36.001-29.548h28.246c3.34,16.824,18.211,29.548,36.001,29.548c19.084,0,34.807-14.641,36.542-33.279
                l7.41-3.846c-0.66,12.197-3.221,24.99-9.815,32.903c-6.591,7.909-8.393,18.267-4.59,26.386c1.724,3.681,4.473,6.518,7.875,8.286
                c-19.95,32.77-51.768,54.017-87.546,54.017c-35.731,0-67.511-21.192-87.466-53.888c4.15-1.888,7.299-5.023,9.013-9.14
                C158.234,291.756,156.008,281.924,149.225,273.783z M198.433,398.412c-1.079-1.946-3.221-3.054-5.436-2.798l-21.864,2.503
                l2.28-44.107c7.733,5.409,16.007,9.806,24.698,13.044l29.875,67.058v17.862l-47.875-25.111l17.813-22.358
                C199.311,402.765,199.512,400.36,198.433,398.412z M293.558,354.01l2.28,44.108l-21.864-2.503
                c-2.215-0.258-4.357,0.852-5.436,2.798c-1.079,1.947-0.878,4.353,0.509,6.093l17.813,22.358l-47.875,25.111v-17.88l29.875-67.041
                C277.552,363.816,285.826,359.419,293.558,354.01z M233.482,419.42l-21.509-48.28c6.982,1.53,14.171,2.332,21.512,2.332
                c7.341,0,14.529-0.802,21.511-2.332L233.482,419.42z M297.864,433.513c1.453-0.763,2.489-2.133,2.827-3.738
                c0.338-1.604-0.058-3.277-1.08-4.56l-13.671-17.159l15.101,1.729c1.605,0.188,3.213-0.348,4.392-1.455s1.81-2.678,1.727-4.293
                l-2.573-49.78c25.192,13.359,46.421,33.784,60.735,58.498c-31.597,23.34-68.583,37.743-107.816,41.928L297.864,433.513z
                M161.539,408.329c1.179,1.107,2.788,1.644,4.392,1.455l15.101-1.729l-13.671,17.159c-1.022,1.282-1.418,2.955-1.08,4.56
                c0.338,1.605,1.375,2.976,2.827,3.738l40.359,21.169c-39.24-4.186-76.232-18.593-107.833-41.94
                c14.316-24.775,35.555-45.229,60.757-58.573l-2.578,49.867C159.729,405.652,160.36,407.222,161.539,408.329z M390.807,390.807
                c-5.355,5.355-10.938,10.399-16.721,15.132c-15.871-26.819-39.376-48.816-67.11-62.834c17.357-16.235,30.951-38.07,38.916-63.244
                c0.574,0.034,1.148,0.058,1.72,0.058c6.306,0,12.409-2.05,17.511-5.938c6.159-4.693,10.122-11.504,11.159-19.178
                s-0.978-15.292-5.671-21.451c-4.228-5.549-10.178-9.307-16.926-10.756c-1.129-35.578-13.253-65.217-35.254-85.963
                c-21.521-20.296-50.895-31.023-84.945-31.023s-63.424,10.728-84.945,31.023c-22.034,20.778-34.162,50.476-35.259,86.126
                c-6.445,1.559-12.117,5.247-16.191,10.594c-4.693,6.159-6.708,13.777-5.671,21.451s5,14.484,11.159,19.178
                c5.102,3.888,11.204,5.938,17.511,5.938c0.332,0,0.665-0.022,0.998-0.034c7.957,25.137,21.527,46.943,38.851,63.167
                c-27.749,14.03-51.221,36.031-67.07,62.873c-5.777-4.729-11.354-9.769-16.704-15.118C34.143,348.784,11,292.913,11,233.486
                s23.143-115.299,65.165-157.32C118.187,34.143,174.058,11,233.485,11c59.428,0,115.299,23.143,157.321,65.165
                c42.022,42.021,65.165,97.893,65.165,157.32S432.829,348.784,390.807,390.807z"/>
        </g>
    </symbol>
    <symbol id="boy6" viewBox="0 0 466.971 466.971">
        <g>
            <path d="M398.585,68.386C354.485,24.287,295.852,0,233.485,0s-121,24.287-165.099,68.386S0,171.119,0,233.486
                s24.287,121,68.386,165.099s102.733,68.386,165.099,68.386s121-24.287,165.1-68.386c44.1-44.1,68.386-102.733,68.386-165.099
                S442.685,112.486,398.585,68.386z M101.619,412.731c13.083-22.647,31.92-41.644,54.304-54.944
                c17.958,30.078,46.59,47.87,77.56,47.87c30.939,0,59.554-17.761,77.518-47.787c22.381,13.309,41.217,32.287,54.306,54.893
                c-37.977,28.048-83.733,43.207-131.822,43.207C185.378,455.971,139.605,440.801,101.619,412.731z M113.308,234.306
                c0.416,11.911,2.023,23.456,4.681,34.464c-3.148-0.375-6.156-1.565-8.744-3.538c-3.822-2.913-6.281-7.139-6.924-11.902
                C101.205,245.062,105.932,237.346,113.308,234.306z M361.86,240.019c2.913,3.822,4.163,8.55,3.519,13.312
                c-0.643,4.763-3.102,8.989-6.924,11.902c-2.793,2.129-6.074,3.359-9.494,3.621c2.693-11.124,4.31-22.796,4.711-34.842
                C356.898,235.173,359.732,237.227,361.86,240.019z M312.865,219.396L312.865,219.396c-4.314-1.258-18.325-2.845-23.202-2.935
                c-4.297-0.08-8.283-0.044-11.998,0.101c-28.878-8.785-59.339-8.796-88.222-0.039c-3.755-0.152-7.785-0.193-12.135-0.113
                c-4.813,0.088-18.8,1.701-23.201,2.985h-0.001c-4.804,1.403-11.793,4.693-16.505,12.326l-13.062-14.1
                c2.007-30.228,12.806-55.313,31.548-72.986c19.442-18.335,46.206-28.026,77.398-28.026s57.957,9.691,77.398,28.026
                c18.786,17.716,29.594,42.879,31.563,73.205l-12.989,14.021C324.746,224.128,317.699,220.807,312.865,219.396z M233.861,242.489
                h-0.75c-1.054-7.375-5.125-14.148-11.46-18.352c-1.238-0.822-2.607-1.568-4.085-2.255c10.591-1.214,21.264-1.217,31.855-0.002
                c-1.485,0.688-2.86,1.434-4.1,2.257C238.986,228.341,234.915,235.114,233.861,242.489z M152.064,281.727
                c-6.149-7.902-9.288-19.781-8.445-32.433c0.694-10.405,5.259-16.912,13.569-19.339c2.503-0.73,12.48-2.037,18.058-2.433
                L152.064,281.727z M187.24,227.452c2.135,0.065,4.174,0.166,6.107,0.307l-27.119,63.421c-1.887-0.457-3.683-1.127-5.386-2.006
                L187.24,227.452z M204.667,229.265c4.655,0.975,8.308,2.318,10.901,4.039c5.294,3.512,7.877,10.147,6.429,16.51
                c-4.97,21.834-26.039,38.667-43.923,41.642L204.667,229.265z M251.403,233.303c5.889-3.908,17.284-5.883,33.903-5.883
                c0.305,0,0.63,0.007,0.938,0.009l-22.213,51.94c-9.015-7.476-16.378-17.785-19.057-29.555
                C243.525,243.451,246.109,236.816,251.403,233.303z M297.903,228.142c1.72,0.192,3.473,0.409,5.103,0.632l-25.314,59.192
                c-1.482-0.667-2.957-1.417-4.418-2.236L297.903,228.142z M313.764,231.595c5.79,3.171,9.015,9.1,9.588,17.699
                c0.92,13.801-2.887,26.697-10.185,34.497c-5.049,5.397-11.381,8.133-18.821,8.133c-1.981,0-4.035-0.212-6.127-0.599
                L313.764,231.595z M133.299,243.263c-0.306,1.655-0.53,3.418-0.655,5.299c-1.136,17.033,3.649,32.612,13.127,42.744
                c7.11,7.601,16.396,11.618,26.854,11.618c22.651,0,52.442-20.241,59.784-49.436h2.153c7.342,29.194,37.134,49.436,59.784,49.436
                c10.458,0,19.744-4.018,26.854-11.618c9.479-10.131,14.263-25.711,13.127-42.744c-0.12-1.807-0.334-3.502-0.622-5.1l8.969-9.682
                c-2.432,71.468-50.474,128.69-109.189,128.69c-58.782,0-106.866-57.353-109.197-128.935L133.299,243.263z M233.485,373.471
                c23.645,0,45.716-8.293,64.334-22.59c1.184,0.554,2.358,1.125,3.526,1.709c-15.968,26.444-40.99,42.067-67.862,42.067
                c-26.9,0-51.937-15.651-67.901-42.143c1.156-0.577,2.318-1.145,3.49-1.693C187.706,365.156,209.807,373.471,233.485,373.471z
                M390.807,390.806c-5.359,5.359-10.947,10.407-16.735,15.144c-15.868-26.824-39.325-48.774-67.103-62.839
                c17.36-16.236,30.956-38.073,38.922-63.25c0.574,0.034,1.148,0.058,1.72,0.058c6.306,0,12.409-2.049,17.511-5.937
                c6.159-4.693,10.122-11.504,11.159-19.178s-0.978-15.292-5.671-21.451c-4.228-5.549-10.178-9.307-16.926-10.757
                c-1.129-35.577-13.253-65.216-35.253-85.963c-21.521-20.295-50.895-31.023-84.945-31.023s-63.424,10.728-84.945,31.023
                c-22.034,20.778-34.162,50.476-35.259,86.125c-6.445,1.559-12.116,5.247-16.191,10.594c-4.694,6.159-6.708,13.777-5.671,21.451
                c1.037,7.674,5,14.485,11.159,19.178c5.102,3.888,11.204,5.938,17.511,5.937c0.332,0,0.665-0.022,0.998-0.034
                c7.956,25.134,21.524,46.937,38.845,63.161c-27.771,14.048-51.22,36.008-67.077,62.868c-5.773-4.726-11.345-9.762-16.69-15.108
                C34.143,348.784,11,292.913,11,233.486c0-59.428,23.143-115.299,65.165-157.321S174.058,11,233.485,11
                c59.428,0,115.299,23.143,157.321,65.165s65.165,97.893,65.165,157.321C455.971,292.913,432.829,348.784,390.807,390.806z"/>
            <path d="M233.481,327.553c8.56,0,16.472-2.355,21.163-6.301c2.325-1.955,2.625-5.425,0.669-7.75
                c-1.955-2.324-5.424-2.625-7.75-0.669c-2.04,1.716-6.953,3.72-14.083,3.72c-7.124,0-12.035-2.004-14.075-3.72
                c-2.325-1.955-5.795-1.656-7.75,0.669c-1.955,2.325-1.655,5.794,0.669,7.75C217.018,325.198,224.926,327.553,233.481,327.553z"/>
            <path d="M232.989,333.989c-3.038,0-5.5,2.462-5.5,5.5v4c0,3.038,2.462,5.5,5.5,5.5s5.5-2.462,5.5-5.5v-4
                C238.489,336.451,236.026,333.989,232.989,333.989z"/>
        </g>
    </symbol>
    <symbol id="boy7" viewBox="0 0 466.971 466.971">
        <g>
            <path d="M398.585,68.386C354.486,24.287,295.852,0,233.486,0s-121,24.287-165.1,68.386C24.287,112.486,0,171.12,0,233.486
                s24.287,121,68.386,165.099c44.1,44.1,102.733,68.386,165.1,68.386s121-24.287,165.1-68.386
                c44.099-44.1,68.386-102.733,68.386-165.099S442.684,112.486,398.585,68.386z M110.384,210.609
                c0-67.944,55.202-123.221,123.056-123.221c67.974,0,123.273,55.269,123.273,123.204c0,4.428-0.191,8.613-0.581,12.645
                c-0.744-0.23-2.45-0.874-2.45-0.874c-1.053-31.44-10.807-58.521-28.38-78.596c-5.852-6.684-14.292-10.622-23.157-10.804
                c-8.797-0.183-16.973,3.208-22.997,9.545c-12.017,12.637-28.234,19.596-45.665,19.596s-33.647-6.959-45.665-19.595
                c-6.025-6.335-14.215-9.727-22.995-9.541c-8.865,0.183-17.306,4.121-23.156,10.805c-17.568,20.072-27.321,47.149-28.375,78.584
                c0,0-1.704,0.864-2.382,1.092C110.446,219.168,110.384,214.81,110.384,210.609z M284.197,212.382
                c-16.744,0-31.121,10.3-37.147,24.894c-8.959-1.037-17.937-0.752-26.797,0.839c-5.814-15.035-20.417-25.732-37.479-25.732
                c-17.585,0-32.557,11.362-37.988,27.126l-20.558-13.368c0.367-30.331,9.225-56.281,25.717-75.122
                c3.818-4.362,9.324-6.933,15.105-7.052c0.146-0.003,0.291-0.004,0.436-0.004c5.508,0,10.594,2.167,14.362,6.129
                c14.114,14.841,33.162,23.014,53.636,23.014s39.522-8.174,53.636-23.016c3.868-4.068,9.118-6.243,14.8-6.127
                c5.781,0.119,11.287,2.689,15.106,7.052c16.495,18.843,25.354,44.793,25.722,75.125l-20.563,13.371
                C316.753,223.744,301.781,212.382,284.197,212.382z M313.371,252.557c0,16.087-13.088,29.175-29.175,29.175
                s-29.174-13.088-29.174-29.175s13.087-29.175,29.174-29.175S313.371,236.47,313.371,252.557z M211.948,252.557
                c0,16.087-13.088,29.175-29.175,29.175s-29.175-13.088-29.175-29.175s13.088-29.175,29.175-29.175S211.948,236.47,211.948,252.557z
                M353.675,234.014c7.789,2.82,12.857,10.781,11.705,19.317c-0.644,4.762-3.103,8.989-6.925,11.901
                c-2.792,2.128-6.071,3.359-9.492,3.621C351.656,257.73,353.273,246.059,353.675,234.014z M113.31,234.305
                c0.417,11.912,2.023,23.456,4.682,34.466c-3.148-0.375-6.157-1.566-8.746-3.539c-3.822-2.913-6.281-7.139-6.925-11.901
                C101.204,245.062,105.932,237.345,113.31,234.305z M142.633,251.228c-0.014,0.442-0.034,0.883-0.034,1.329
                c0,22.152,18.022,40.175,40.175,40.175s40.175-18.022,40.175-40.175c0-1.249-0.065-2.482-0.177-3.703
                c7.116-1.225,14.315-1.486,21.509-0.788c-0.165,1.475-0.257,2.972-0.257,4.491c0,22.152,18.021,40.175,40.174,40.175
                s40.175-18.022,40.175-40.175c0-0.446-0.019-0.886-0.034-1.329l18.048-11.735c-4.722,68.78-51.757,122.978-108.902,122.978
                c-57.14,0-104.17-54.196-108.894-122.975L142.633,251.228z M238.489,378.656l39.351,28.489c1.46,1.057,3.346,1.33,5.043,0.736
                c1.699-0.595,3.001-1.985,3.482-3.72l14.396-51.866c26.876,13.298,49.505,34.491,64.546,60.469
                c-36.658,27.073-80.564,42.132-126.818,43.146V378.656z M248.519,372.338c13.984-2.117,27.229-7.146,39.306-14.567l-9.944,35.825
                L248.519,372.338z M217.527,372.19l-29.319,21.349l-9.887-36.28C190.354,364.794,203.565,369.943,217.527,372.19z M179.692,404.125
                c0.476,1.745,1.778,3.144,3.484,3.743c0.594,0.208,1.209,0.311,1.822,0.311c1.147,0,2.284-0.36,3.237-1.054l39.253-28.582v77.344
                c-45.909-1.207-89.466-16.256-125.87-43.156c14.932-25.848,37.36-46.942,64.003-60.237L179.692,404.125z M390.807,390.807
                c-5.359,5.359-10.947,10.407-16.735,15.144c-15.868-26.823-39.326-48.773-67.103-62.839c17.361-16.236,30.958-38.073,38.925-63.251
                c0.574,0.034,1.147,0.058,1.719,0.058c6.306,0,12.408-2.05,17.51-5.937c6.159-4.693,10.122-11.504,11.158-19.178
                c1.355-10.036-2.626-19.58-9.751-25.775c0.793-5.846,1.185-11.908,1.185-18.437c0-74-60.234-134.204-134.273-134.204
                c-73.919,0-134.056,60.211-134.056,134.221c0,6.062,0.123,12.457,1.286,18.864c-6.81,6.202-10.574,15.533-9.25,25.331
                c1.036,7.674,4.999,14.485,11.158,19.178c5.102,3.888,11.204,5.937,17.51,5.937c0.333,0,0.667-0.022,1.001-0.034
                c7.956,25.134,21.523,46.937,38.844,63.161c-27.772,14.048-51.221,36.009-67.078,62.868c-5.773-4.726-11.345-9.762-16.691-15.108
                C34.143,348.785,11,292.914,11,233.486c0-59.428,23.143-115.299,65.164-157.321C118.187,34.143,174.058,11,233.486,11
                s115.299,23.143,157.321,65.165c42.021,42.022,65.164,97.893,65.164,157.321C455.971,292.914,432.828,348.785,390.807,390.807z"/>
            <path d="M233.481,335.355c8.561,0,16.473-2.355,21.164-6.301c2.325-1.955,2.624-5.425,0.669-7.75
                c-1.955-2.324-5.424-2.625-7.749-0.669c-2.04,1.716-6.953,3.72-14.084,3.72c-7.124,0-12.034-2.004-14.074-3.72
                c-2.325-1.955-5.794-1.656-7.749,0.669c-1.955,2.325-1.656,5.794,0.669,7.75C217.018,333,224.926,335.355,233.481,335.355z"/>
        </g>
    </symbol>
</svg>
