<svg xmlns="http://www.w3.org/2000/svg">
    <symbol id="girl" viewBox="0 0 466.971 466.971">
        <g>
            <path d="M398.585,68.386C354.485,24.287,295.852,0,233.485,0s-121,24.287-165.099,68.386S0,171.119,0,233.486
            s24.287,121,68.386,165.099s102.733,68.386,165.099,68.386s121-24.287,165.1-68.386c44.1-44.1,68.386-102.733,68.386-165.099
            S442.685,112.486,398.585,68.386z M101.619,412.731c11.906-20.608,28.572-38.198,48.345-51.22
            c22.54,26.195,52.032,40.566,83.546,40.566c31.447,0,60.875-14.356,83.376-40.528c19.802,13.03,36.496,30.617,48.422,51.215
            c-37.977,28.048-83.733,43.207-131.822,43.207C185.378,455.971,139.605,440.801,101.619,412.731z M83.983,221.184
            c-3.835-13.127-7.458-25.527-7.763-40.155c-0.669-32.017,11.5-62.451,34.266-85.697c23.282-23.774,55.732-37.409,89.029-37.409
            c35.019,0,68.437,14.943,91.804,41.013c1.576,3.208,9.266,20.119,5.104,36.764c-0.737,2.947,1.055,5.933,4.002,6.67
            c0.448,0.112,0.896,0.166,1.338,0.166c2.464,0,4.707-1.668,5.332-4.167c2.908-11.633,1.266-23-1.079-31.437
            c32.996,18.988,53.686,54.136,53.686,92.919c0,7.644-0.797,15.214-2.374,22.595l-6.01-4.15c-0.262-0.182-0.54-0.339-0.83-0.473
            c-13.637-6.263-19.184-18.389-24.548-30.116c-1.591-3.477-3.235-7.073-5.049-10.398c-5.012-9.188-12.528-9.403-19.796-9.611
            c-8.028-0.229-18.02-0.515-32.379-11.61c-14.254-11.015-35.399-16.034-59.542-14.133c-21.564,1.698-43.074,8.879-57.538,19.21
            c-20.548,14.677-19.671,45.604-18.967,70.454c0.315,11.104,0.612,21.593-1.257,27.2c-4.108,12.325-15.315,32.63-45.075,38.055
            C96.918,265.461,90.352,242.981,83.983,221.184z M365.022,284.328c0,3.218-2.618,5.835-5.836,5.835s-5.835-2.618-5.835-5.835
            s2.618-5.836,5.835-5.836S365.022,281.111,365.022,284.328z M348.963,268.854c2.693-11.124,4.31-22.796,4.712-34.841
            c3.226,1.161,6.058,3.215,8.186,6.006c2.913,3.822,4.163,8.55,3.519,13.312c-0.643,4.763-3.102,8.989-6.924,11.902
            C355.662,267.361,352.382,268.591,348.963,268.854z M141.849,262.296c2.484-7.452,2.175-18.36,1.817-30.99
            c-0.63-22.24-1.415-49.919,14.365-61.19c12.908-9.22,32.35-15.648,52.007-17.196c21.415-1.687,39.864,2.53,51.953,11.872
            c17.191,13.285,30.189,13.656,38.79,13.902c7.08,0.202,8.626,0.534,10.453,3.883c1.629,2.986,3.122,6.25,4.703,9.707
            c5.542,12.114,11.781,25.74,26.833,33.962c0.007,0.602,0.011,1.213,0.011,1.848c0,74.096-49.031,134.377-109.299,134.377
            c-42.645,0-83.241-32.712-101.275-81.484C137.371,273.878,140.297,266.952,141.849,262.296z M233.483,373.471
            c23.646,0,45.717-8.292,64.336-22.59c3.236,1.515,6.411,3.147,9.525,4.883c-20.217,22.823-46.216,35.313-73.835,35.313
            c-27.686,0-53.749-12.503-74.005-35.35c3.244-1.809,6.554-3.504,9.931-5.071C188.517,365.177,210.706,373.471,233.483,373.471z
            M390.807,390.806c-5.359,5.359-10.947,10.407-16.735,15.144c-15.868-26.824-39.325-48.774-67.102-62.839
            c15.344-14.35,27.75-33.073,35.926-54.613c1.863,7.269,8.45,12.666,16.292,12.666c9.283,0,16.836-7.552,16.836-16.835
            c0-5.681-2.836-10.704-7.159-13.754c4.017-4.339,6.609-9.79,7.417-15.771c1.037-7.674-0.978-15.292-5.671-21.451
            c-1.097-1.44-2.314-2.755-3.627-3.945c2.465-9.599,3.72-19.522,3.72-29.556c0-47.417-28.038-89.926-71.537-108.651
            c-25.436-28.156-61.681-44.277-99.65-44.277c-36.236,0-71.55,14.839-96.888,40.712c-24.852,25.377-38.136,58.626-37.405,93.624
            c0.336,16.084,4.335,29.772,8.203,43.01c6.701,22.935,13.03,44.597-0.527,77.077c-0.736,1.764-0.504,3.785,0.614,5.335
            c1.038,1.44,2.702,2.284,4.46,2.284c0.135,0,0.271-0.005,0.407-0.015c21.373-1.583,35.872-9.478,45.655-18.676
            c8.599,20.881,21.136,38.826,36.152,52.644c-27.882,14.042-51.426,36.055-67.331,62.996c-5.773-4.726-11.345-9.762-16.69-15.108
            C34.143,348.784,11,292.913,11,233.486c0-59.428,23.143-115.299,65.165-157.321S174.058,11,233.485,11
            c59.428,0,115.299,23.143,157.321,65.165s65.165,97.893,65.165,157.321C455.971,292.913,432.829,348.784,390.807,390.806z"/>
            <path d="M211.638,328.586c5.932,4.727,13.682,7.33,21.823,7.33c8.149,0,15.903-2.603,21.834-7.33
            c2.375-1.893,2.767-5.354,0.874-7.729c-1.895-2.376-5.355-2.767-7.729-0.874c-3.991,3.181-9.311,4.932-14.979,4.932
            c-5.661,0-10.976-1.751-14.967-4.932c-2.376-1.893-5.836-1.502-7.729,0.874C208.871,323.233,209.262,326.693,211.638,328.586z"/>
            <path d="M177.707,253.153c-0.602,2.26-0.489,4.727,0.503,7.043c2.355,5.499,8.722,8.047,14.221,5.692
            c5.499-2.355,8.047-8.722,5.692-14.22c-0.638-1.489-1.576-2.752-2.705-3.769c-5.345-5.737-13.628-7.832-21.123-5.198
            c-2.924,1.028-6.223,0.437-8.609-1.542c-2.339-1.939-5.806-1.616-7.745,0.722c-1.939,2.338-1.616,5.806,0.722,7.745
            C163.943,254.004,171.217,255.341,177.707,253.153z"/>
            <path d="M279.703,265.888c5.499,2.355,11.866-0.193,14.221-5.692c0.992-2.316,1.105-4.784,0.503-7.043
            c6.492,2.189,13.765,0.851,19.043-3.527c2.338-1.939,2.661-5.407,0.722-7.745c-1.941-2.339-5.408-2.661-7.745-0.722
            c-2.385,1.979-5.684,2.571-8.609,1.542c-7.49-2.632-15.772-0.539-21.119,5.194c-1.13,1.018-2.07,2.282-2.709,3.773
            C271.656,257.167,274.205,263.533,279.703,265.888z"/>
        </g>
    </symbol>
    <symbol id="girl2" viewBox="0 0 466.971 466.971">
        <g>
            <path d="M311.728,258.701c-1.07-2.843-4.243-4.277-7.086-3.208c-2.898,1.092-6.213,0.576-8.641-1.349
            c-6.251-4.953-14.808-5.662-21.746-1.931c-1.359,0.594-2.621,1.469-3.682,2.639c-4.019,4.43-3.686,11.28,0.745,15.299
            c4.43,4.019,11.28,3.686,15.299-0.744c1.69-1.863,2.601-4.154,2.771-6.483c3.514,2.706,7.816,4.127,12.159,4.127
            c2.354,0,4.72-0.415,6.974-1.264C311.362,264.716,312.799,261.543,311.728,258.701z"/>
            <path d="M193.256,252.119c-6.907-3.617-15.362-2.883-21.557,2.025c-2.43,1.923-5.742,2.442-8.642,1.349
            c-2.844-1.072-6.016,0.365-7.086,3.208c-1.071,2.842,0.365,6.015,3.207,7.086c2.255,0.849,4.618,1.264,6.974,1.264
            c4.358,0,8.678-1.43,12.2-4.156c0.164,2.338,1.076,4.641,2.773,6.512c4.019,4.43,10.869,4.764,15.299,0.744
            c4.43-4.019,4.764-10.869,0.745-15.299C196.048,253.616,194.703,252.711,193.256,252.119z"/>
            <path d="M243.846,316.637c-2.791,2.679-6.473,4.155-10.365,4.155c-3.887,0-7.564-1.476-10.355-4.155
            c-2.192-2.104-5.673-2.033-7.776,0.159c-2.104,2.191-2.032,5.673,0.159,7.776c4.85,4.655,11.232,7.219,17.973,7.219
            c6.746,0,13.133-2.564,17.982-7.219c2.191-2.104,2.263-5.585,0.159-7.776C249.519,314.605,246.037,314.533,243.846,316.637z"/>
            <path d="M398.585,68.386C354.485,24.287,295.852,0,233.485,0s-121,24.287-165.1,68.386C24.287,112.486,0,171.119,0,233.485
            s24.287,121,68.386,165.099c44.1,44.1,102.733,68.386,165.1,68.386s121-24.287,165.1-68.386
            c44.099-44.1,68.386-102.733,68.386-165.099S442.684,112.486,398.585,68.386z M101.633,412.741
            c11.362-19.671,27.06-36.594,45.659-49.417c22.577,27.997,53.725,43.955,86.21,43.955c32.696,0,63.856-15.91,86.239-43.821
            c18.559,12.815,34.228,29.694,45.58,49.297c-37.98,28.054-83.741,43.216-131.835,43.216
            C185.384,455.971,139.616,440.804,101.633,412.741z M110.176,210.617c0-17.756,3.857-35.314,11.192-51.335
            c1.175,1.512,2.413,2.969,3.728,4.356c0.301,0.317,0.978,0.994,1.821,1.797c-1.672,4.216-3.027,8.608-4.03,13.15
            c-0.654,2.966,1.219,5.902,4.186,6.557c0.399,0.088,0.798,0.13,1.19,0.13c2.524,0,4.799-1.749,5.366-4.315
            c6.94-31.435,33.137-54.654,65.185-57.777c3.023-0.295,5.235-2.984,4.94-6.008c-0.294-3.023-3.002-5.229-6.007-4.94
            c-3.493,0.34-6.925,0.891-10.284,1.636c-2.685-4.751-6.015-9.176-9.881-13.215c17.155-8.685,36.237-13.257,55.634-13.257
            c19.548,0,38.761,4.639,56.018,13.455c-3.837,4.046-7.1,8.44-9.703,13.023c-3.367-0.747-6.807-1.301-10.309-1.642
            c-3.016-0.289-5.713,1.917-6.007,4.94c-0.295,3.023,1.917,5.713,4.94,6.008c32.048,3.124,58.244,26.343,65.186,57.777
            c0.567,2.567,2.842,4.315,5.366,4.315c0.393,0,0.792-0.042,1.19-0.13c2.967-0.655,4.84-3.59,4.186-6.557
            c-1.003-4.544-2.359-8.937-4.032-13.154c0.822-0.772,1.5-1.448,1.828-1.794c1.272-1.342,2.473-2.748,3.614-4.207
            c7.29,15.97,11.123,33.489,11.123,51.187c0,3.67-0.178,7.337-0.5,10.976l-1.084-0.787c-6.726-4.877-14.262-8.944-22.404-12.089
            c-8.124-3.128-16.724-5.292-25.562-6.433c-31.515-4.073-57.699-22.427-66.707-46.758l-1.049-2.834
            c-0.799-2.158-2.856-3.591-5.157-3.591c-0.001,0-0.001,0-0.001,0c-2.301,0-4.358,1.432-5.157,3.59l-1.051,2.837
            c-4.403,11.903-12.91,22.563-24.604,30.827c-11.864,8.391-26.424,13.9-42.105,15.931c-17.881,2.318-34.465,8.723-47.959,18.525
            l-2.5,1.816C110.394,218.638,110.176,214.624,110.176,210.617z M176.577,117.068c-5.689,2.086-11.098,4.752-16.146,7.945
            c-6.745-15.484-16.12-27.633-23.843-35.936C153.763,93.837,168.247,103.86,176.577,117.068z M131.99,154.874
            c-11.828-13.441-18.8-37.771-10.099-64.897c7.642,7.058,21.189,21.531,29.412,41.707
            C143.58,138.154,137.024,145.991,131.99,154.874z M315.668,131.684c8.198-20.1,21.762-34.608,29.414-41.692
            c8.696,27.113,1.725,51.44-10.1,64.884C329.948,145.993,323.391,138.155,315.668,131.684z M306.54,125.014
            c-5.04-3.188-10.439-5.85-16.118-7.935c3.023-4.749,6.936-9.236,11.557-13.19c7.948-6.806,17.701-11.844,28.401-14.809
            C322.658,97.383,313.284,109.531,306.54,125.014z M306.839,343.035c3.878-3.646,7.596-7.6,11.133-11.852
            c12.292-14.778,21.627-32.245,27.624-51.312c1.813,0.102,3.615,0.031,5.39-0.201v95.968
            C338.234,362.42,323.293,351.346,306.839,343.035z M233.12,362.471c-28.8,0-55.992-13.684-76.567-38.53
            c-20.819-25.142-32.44-58.711-32.721-94.528c-0.007-0.774-0.145-1.523-0.381-2.231c11.3-7.298,24.75-12.116,39.199-13.989
            c17.454-2.26,33.722-8.436,47.042-17.858c10.535-7.445,18.86-16.649,24.472-26.975c12.896,23.556,39.882,40.747,71.495,44.833
            c7.969,1.029,15.713,2.977,23.013,5.788c5.23,2.02,10.166,4.467,14.748,7.291c-0.633,1.132-1.002,2.425-1.018,3.79
            c-0.416,35.676-12.096,69.09-32.888,94.087C288.961,348.862,261.83,362.471,233.12,362.471z M233.12,373.471
            c23.236,0,45.468-7.907,64.584-22.652c4.346,2.029,8.584,4.266,12.706,6.691c-20.222,24.711-47.952,38.767-76.908,38.767
            c-28.75,0-56.465-14.101-76.872-38.895c3.935-2.31,7.975-4.448,12.113-6.395C187.81,365.628,209.962,373.471,233.12,373.471z
            M358.09,265.232c-2.781,2.119-6.041,3.358-9.446,3.628c2.697-11.228,4.279-22.916,4.673-34.849
            c7.767,2.832,12.843,10.845,11.698,19.32C364.371,258.093,361.912,262.32,358.09,265.232z M112.934,234.292
            c0.408,11.812,1.979,23.374,4.644,34.493c-3.132-0.382-6.12-1.59-8.696-3.553c-3.822-2.913-6.281-7.139-6.925-11.902
            C100.847,245.117,105.571,237.346,112.934,234.292z M120.653,279.904c5.965,18.951,15.23,36.325,27.428,51.053
            c3.654,4.413,7.505,8.501,11.524,12.264c-16.248,8.268-31.006,19.246-43.62,32.332v-95.892
            C117.524,279.863,119.083,279.951,120.653,279.904z M390.807,390.806c-5.355,5.355-10.938,10.4-16.722,15.133
            c-3.645-6.161-7.693-12.061-12.099-17.672v-112.42c0.951-0.567,1.878-1.185,2.771-1.866c6.159-4.693,10.122-11.504,11.158-19.179
            c1.335-9.888-2.59-19.381-9.605-25.602c0.85-6.115,1.307-12.347,1.307-18.584c0-21.671-5.278-43.102-15.259-62.168
            c9.8-19.934,10.225-46.001,0.226-69.889c-0.902-2.157-3.076-3.5-5.404-3.367c-18.402,1.112-35.722,7.412-49.241,17.825
            c-19.737-10.881-42.025-16.621-64.722-16.621c-22.567,0-44.749,5.681-64.402,16.443c-13.288-10.106-30.508-16.528-49.028-17.647
            c-2.323-0.129-4.503,1.21-5.405,3.368c-9.962,23.819-9.566,49.794,0.144,69.699c-10.045,19.133-15.349,40.614-15.349,62.358
            c0,6.264,0.441,12.551,1.303,18.737c-6.906,6.221-10.749,15.637-9.424,25.448c1.036,7.674,4.999,14.485,11.158,19.179
            c0.891,0.679,1.823,1.281,2.771,1.846v112.367c-4.414,5.627-8.468,11.547-12.117,17.73c-5.778-4.729-11.354-9.769-16.704-15.119
            C34.143,348.784,11,292.913,11,233.485c0-59.428,23.143-115.299,65.164-157.321C118.187,34.143,174.058,11,233.485,11
            s115.299,23.143,157.321,65.165c42.021,42.021,65.164,97.893,65.164,157.321C455.971,292.913,432.828,348.784,390.807,390.806z"/>
        </g>
    </symbol>
    <symbol id="girl3" viewBox="0 0 466.971 466.971">
        <g>
            <path d="M233.481,330.925c6.747,0,13.132-2.563,17.982-7.219c2.191-2.104,2.263-5.585,0.159-7.776
            c-2.104-2.191-5.584-2.263-7.776-0.159c-2.791,2.679-6.472,4.154-10.365,4.154c-3.888,0-7.565-1.475-10.355-4.154
            c-2.191-2.102-5.672-2.033-7.777,0.159c-2.104,2.191-2.032,5.673,0.159,7.777C220.357,328.361,226.74,330.925,233.481,330.925z"/>
            <path d="M151.151,248.533c-1.714,2.507-1.071,5.93,1.437,7.644c0.949,0.649,2.029,0.96,3.099,0.96c1.755,0,3.48-0.838,4.545-2.397
            c1.034-1.512,2.333-2.815,3.862-3.872c1.153-0.797,2.385-1.414,3.661-1.856c-0.099,2.276,0.505,4.601,1.901,6.619
            c3.402,4.92,10.148,6.151,15.069,2.75c4.92-3.402,6.151-10.148,2.749-15.069c-0.6-0.868-1.309-1.615-2.089-2.248
            c-0.512-0.619-1.162-1.138-1.941-1.495c-8.293-3.798-18.105-2.935-25.606,2.251C155.197,243.646,152.947,245.905,151.151,248.533z"
            />
            <path d="M398.584,68.386C354.486,24.287,295.852,0,233.485,0c-62.366,0-121,24.287-165.099,68.386S0,171.119,0,233.486
            s24.287,121,68.386,165.099s102.733,68.386,165.099,68.386c62.367,0,121-24.287,165.1-68.386
            c44.099-44.1,68.386-102.733,68.386-165.099S442.684,112.486,398.584,68.386z M88.451,341.306c0.02-0.042,0.039-0.083,0.058-0.125
            l7.439-16.438c5.003-10.392,7.54-22.238,7.54-35.207v-89.755c0-34.426,13.437-66.994,37.836-91.357
            c24.377-24.341,56.75-37.936,91.163-37.936c0.025,0,0.051,0,0.076,0c71.089,0,128.925,58.814,128.925,130.541v88.429
            c0,11.72,2.943,23.969,8.532,35.465l8.048,16.209c9.402,19.374,9.367,42.293-0.042,61.5c-0.642,0.55-1.291,1.09-1.938,1.633
            c-15.837-28.385-39.906-51.516-68.848-66.219c6.779-6.364,13.04-13.654,18.664-21.808c5.47,2.361,11.16,4.556,17.09,6.547
            c0.571,0.192,1.163,0.286,1.751,0.286c1.138,0,2.264-0.353,3.211-1.035c1.438-1.033,2.289-2.695,2.289-4.465
            c0-9.407,0.349-25.22,1.037-47.005c0.632-20.425,1.355-39.522,1.638-46.785c0.117-3.036-2.248-5.591-5.283-5.709
            c-3.022-0.116-5.591,2.248-5.709,5.283c-0.282,7.276-1.007,26.408-1.64,46.868c-0.529,16.747-0.859,30.003-0.985,39.573
            c-53.956-20.338-86.402-58.202-104.314-86.995c-20.394-32.78-26.979-61.32-27.042-61.6c-0.664-2.964-3.602-4.826-6.569-4.166
            c-2.964,0.664-4.829,3.604-4.166,6.569c0.274,1.223,6.949,30.341,28.215,64.652c2.864,4.621,6.094,9.467,9.694,14.432
            c-65.794-14.171-103.086-72.13-103.477-72.748c-1.305-2.074-3.825-3.035-6.18-2.356c-2.354,0.679-3.976,2.834-3.976,5.285v150.621
            c0,3.038,2.462,5.5,5.5,5.5s5.5-2.462,5.5-5.5v-21.702c7.431,13.979,16.688,26.152,27.308,36.125
            c-29,14.689-53.111,37.861-68.955,66.319c-0.803-0.673-1.61-1.34-2.404-2.025C79.105,382.836,79.084,360.702,88.451,341.306z
            M315.758,311.545c-20.769,29.202-50.433,45.829-82.214,45.829c-43.516,0-83.568-32.541-101.056-81.584v-86.354
            c5.32,6.443,12.703,14.544,22.085,22.905c18.973,16.906,49.987,37.974,90.569,43.212
            C261.918,275.617,284.915,296.279,315.758,311.545z M233.544,368.374c23.334,0,45.578-7.942,64.576-22.552
            c3.7,1.74,7.319,3.628,10.851,5.652c-20.379,23.98-46.952,37.107-75.427,37.107c-28.449,0-55.024-13.187-75.43-37.277
            c3.526-2.013,7.136-3.894,10.828-5.624C187.813,360.206,210.07,368.374,233.544,368.374z M99.576,411.191
            c11.783-21.779,28.715-40.332,49.107-54.04c22.424,27.025,53.09,42.429,84.862,42.429c31.792,0,62.451-15.337,84.849-42.243
            c20.319,13.696,37.198,32.191,48.961,53.885c-38.376,29.029-84.911,44.748-133.869,44.748
            C184.51,455.971,137.959,440.24,99.576,411.191z M394.728,386.787c3.127-16.908,0.878-34.711-6.785-50.501l-8.05-16.213
            c-4.844-9.964-7.404-20.551-7.404-30.614V201.03c0-77.789-62.768-141.541-139.918-141.541c-0.03,0-0.054,0-0.083,0
            c-37.345,0-72.481,14.739-98.935,41.152c-26.48,26.441-41.063,61.774-41.063,99.141v89.755c0,11.327-2.179,21.585-6.477,30.49
            c-0.02,0.041-0.039,0.082-0.058,0.123l-7.438,16.435c-7.579,15.725-9.835,33.005-6.789,49.647
            C32.521,344.771,11,290.784,11,233.486c0-59.428,23.143-115.299,65.165-157.321S174.058,11,233.485,11
            c59.428,0,115.299,23.143,157.322,65.165c42.021,42.021,65.164,97.893,65.164,157.321
            C455.971,291.038,434.265,345.255,394.728,386.787z"/>
        </g>
    </symbol>
    <symbol id="girl4" viewBox="0 0 466.971 466.971">
        <path d="M398.585,68.386C354.485,24.287,295.852,0,233.485,0s-121,24.287-165.099,68.386S0,171.119,0,233.486
            s24.287,121,68.386,165.099s102.733,68.386,165.099,68.386s121-24.287,165.1-68.386c44.1-44.1,68.386-102.733,68.386-165.099
            S442.685,112.486,398.585,68.386z M104.634,386.252l-10.128-13.927c-6.931-9.53-8.088-22.091-3.016-32.727l9.431-19.775
            c5.71-11.972,1.747-26.048-8.918-33.934c-8.463-6.258-11.116-17.902-6.156-27.218c11.877-22.308,20.939-47.148,26.935-73.832
            c6.096-27.13,21.176-51.806,42.46-69.481c22.029-18.293,48.704-27.962,77.14-27.962c53.889,0,72.169,28.704,77.106,39.394
            c0.784,1.697,2.116,6.425,2.315,7.699c1.079,6.894,1.732,16.021,0.065,20.742c-0.979,2.772,0.327,5.946,3.048,7.059
            c0.686,0.281,1.394,0.413,2.088,0.413c2.247,0,4.357-1.388,5.169-3.622c2.469-6.79,1.803-16.795,0.866-23.759
            c6.572,1.996,12.237,6.324,15.786,12.267c11.333,18.991,17.323,40.786,17.323,63.028v1.145c0,4.116-0.098,8.254-0.271,12.374l0,0
            c-4.253-0.932-8.375-2.412-12.196-4.498c-15.327-8.372-28.42-20.23-38.286-34.695c1.994-1.741,3.548-4.026,4.408-6.708
            c0.961-2.998-0.588-6.359-3.61-7.242c-2.924-0.854-5.987,0.834-6.827,3.761c-0.576,2.006-2.716,3.262-4.749,2.79l-38.772-8.999
            l-0.268-0.061c-6.852-1.52-13.881-0.082-19.681,4.049c-5.457,3.888-9.032,9.892-10.245,16.482l-1.927,10.475
            c-2.706,14.712-16.476,24.957-31.344,23.334l-28.631-3.134c-8.395-0.922-16.811,1.786-23.096,7.422
            c-7.75,6.947-11.424,17.601-9.292,28.082c1.347,6.62,5.117,12.501,10.309,16.823l0.326,0.272
            c10.421,8.675,13.876,23.18,8.485,35.622l-0.377,0.871c-9.67,22.32-10.789,47.33-3.15,70.421l4.619,13.975
            c5.087,15.399,5.504,32.164,1.297,47.797c-17.498-6.792-34.1-15.831-49.464-26.95c2.381-2.732,4.091-6.032,4.924-9.646
            C109.782,398.085,108.435,391.477,104.634,386.252z M358.988,366.573c0.521,9.297,4.733,17.718,11.86,23.711l10.852,9.124
            c-2.502,2.241-5.043,4.426-7.629,6.542c-15.868-26.824-39.325-48.774-67.102-62.839c17.361-16.236,30.958-38.072,38.924-63.25
            c0.574,0.034,1.147,0.058,1.718,0.058c2.985,0,5.92-0.474,8.729-1.37l16.237,39.097c3.398,8.181,1.651,17.618-4.451,24.041
            C361.712,348.437,358.467,357.276,358.988,366.573z M233.483,373.471c16.146,0,31.556-3.874,45.637-10.877
            c-1.792,23.657-21.603,42.361-45.715,42.361c-24.091,0-43.888-18.672-45.71-42.299C201.995,369.75,217.465,373.471,233.483,373.471
            z M233.483,362.471c-29.117,0-56.354-13.842-76.979-39.039c1.019-3.48,2.239-6.915,3.696-10.278l0.376-0.869
            c7.28-16.804,2.537-36.726-11.536-48.445l-0.731-0.608c-4.16-3.464-6.545-8.555-6.545-13.967c0-5.32,2.272-10.409,6.233-13.96
            c3.961-3.552,9.27-5.254,14.556-4.678l28.632,3.134c20.574,2.248,39.616-11.928,43.359-32.279l2.021-10.989
            c0.706-3.835,2.884-7.134,6.133-9.288c3.142-2.082,6.871-2.787,10.491-1.982l38.94,9.037c0.837,0.194,1.673,0.3,2.504,0.351
            c11.91,18.428,28.48,33.218,48.112,42.939C341.253,304.057,292.813,362.471,233.483,362.471z M153.674,336.907
            c2,2.152,4.044,4.224,6.14,6.196c-2.307,1.169-4.59,2.388-6.84,3.667C153.024,343.473,153.252,340.18,153.674,336.907z
                M365.379,253.331c-0.643,4.763-3.102,8.989-6.924,11.902c-2.793,2.128-6.072,3.357-9.492,3.62
            c2.603-10.753,4.207-22.016,4.674-33.636c3.298,1.108,6.16,3.014,8.268,5.573C364.809,244.319,366.011,248.656,365.379,253.331z
                M163.25,444.709c5.015-17.944,4.624-37.261-1.229-54.981l-4.621-13.979c-1.799-5.438-3.035-10.996-3.744-16.597
            c4.928-3.044,10.048-5.814,15.287-8.268c2.506,1.934,5.066,3.749,7.675,5.445c-0.046,0.927-0.073,1.853-0.073,2.773
            c0,31.349,25.508,56.853,56.861,56.853s56.862-25.504,56.862-56.853c0-0.952-0.026-1.897-0.072-2.831
            c2.6-1.687,5.143-3.484,7.625-5.39c28.166,13.182,51.901,34.962,67.488,61.883c-37.977,28.048-83.733,43.207-131.822,43.207
            C209.249,455.971,185.605,452.119,163.25,444.709z M390.807,390.806c-0.343,0.343-0.694,0.673-1.039,1.014l-11.841-9.955
            c-4.782-4.02-7.607-9.669-7.957-15.906c-0.349-6.237,1.828-12.167,6.13-16.696c9.095-9.574,11.7-23.64,6.635-35.835l-16.689-40.186
            c5.629-4.656,9.25-11.156,10.234-18.437c1.037-7.677-1.053-15.136-5.885-21.005c-1.145-1.39-2.419-2.66-3.803-3.802
            c0.362-6.044,0.556-12.163,0.556-18.235v-1.145c0-24.227-6.528-47.971-18.878-68.667c-6.059-10.146-16.492-16.939-28.229-18.512
            c-2.445-5.686-8.027-15.92-19.319-25.452c-16.97-14.326-39.963-21.59-68.34-21.59c-31.034,0-60.139,10.547-84.167,30.5
            c-23.144,19.219-39.54,46.043-46.166,75.532c-5.78,25.722-14.498,49.634-25.912,71.073c-7.584,14.246-3.417,32.087,9.693,41.499
            c6.363,4.569,8.535,13.017,5.162,20.087l-9.432,19.776c-6.816,14.292-5.265,31.125,4.048,43.931l10.129,13.927
            c1.926,2.648,2.609,5.998,1.874,9.189c-0.478,2.073-1.529,3.936-2.995,5.415c-6.401-5.133-12.567-10.634-18.453-16.52
            C34.143,348.784,11,292.913,11,233.486c0-59.428,23.143-115.299,65.165-157.321S174.058,11,233.485,11
            c59.428,0,115.299,23.143,157.321,65.165s65.165,97.893,65.165,157.321C455.971,292.913,432.829,348.784,390.807,390.806z"/>
        <path d="M243.845,319.238c-2.791,2.679-6.471,4.155-10.364,4.155c-3.887,0-7.565-1.476-10.355-4.155
            c-2.19-2.102-5.672-2.033-7.777,0.159c-2.104,2.191-2.032,5.673,0.159,7.777c4.85,4.655,11.233,7.219,17.974,7.219
            c6.746,0,13.132-2.564,17.982-7.219c2.191-2.104,2.262-5.585,0.159-7.777C249.519,317.206,246.037,317.135,243.845,319.238z"/>
        <path d="M192.835,250.498c-5.345-5.736-13.628-7.831-21.121-5.196c-2.924,1.028-6.223,0.437-8.609-1.542
            c-2.337-1.939-5.805-1.617-7.745,0.722c-1.939,2.338-1.616,5.805,0.722,7.745c5.279,4.378,12.554,5.716,19.043,3.527
            c-0.602,2.26-0.489,4.727,0.503,7.043c2.355,5.499,8.722,8.047,14.221,5.692c5.499-2.355,8.047-8.722,5.692-14.22
            C194.903,252.779,193.964,251.515,192.835,250.498z"/>
        <path d="M310.889,252.226c2.338-1.939,2.661-5.407,0.722-7.745c-1.94-2.339-5.407-2.662-7.745-0.722
            c-2.386,1.979-5.684,2.57-8.609,1.542c-7.493-2.634-15.776-0.539-21.122,5.197c-1.129,1.018-2.068,2.281-2.706,3.77
            c-2.355,5.499,0.193,11.865,5.692,14.22c5.499,2.355,11.866-0.193,14.221-5.692c0.992-2.316,1.105-4.784,0.503-7.043
            C298.335,257.941,305.609,256.605,310.889,252.226z"/>
    </symbol>
    <symbol id="girl5" viewBox="0 0 466.971 466.971">
        <g>
            <path d="M398.585,68.386C354.485,24.287,295.852,0,233.485,0s-121,24.287-165.099,68.386S0,171.119,0,233.486
                s24.287,121,68.386,165.099s102.733,68.386,165.099,68.386s121-24.287,165.1-68.386c44.1-44.1,68.386-102.733,68.386-165.099
                S442.685,112.486,398.585,68.386z M101.619,412.731c12.13-20.997,29.206-38.855,49.471-51.946
                c22.356,25.545,51.461,39.558,82.455,39.558c24.034,0,47.23-8.535,67.08-24.681c5.416-4.404,10.541-9.353,15.295-14.738
                c20.224,13.09,37.269,30.909,49.387,51.839c-37.977,28.048-83.733,43.207-131.822,43.207
                C185.378,455.971,139.605,440.801,101.619,412.731z M85.653,166.815l-1.23-23.656c-0.03-0.622-0.063-1.259-0.063-1.873
                c0-12.946,6.99-24.887,18.244-31.164c7.509-4.192,16.024-5.508,24.231-3.903c-4.519,7.038-4.655,16.186-0.368,23.346
                c-17.126,22.537-27.308,50.626-27.308,81.053c0,7.454,0.546,14.485,1.66,21.41c-0.369,0.431-0.731,0.87-1.078,1.325
                c-4.693,6.159-6.708,13.777-5.671,21.451c0.206,1.528,0.534,3.02,0.967,4.47l-32.044,10.304
                C79.699,237.983,87.507,202.744,85.653,166.815z M404.357,269.887l-32.552-10.327c0.477-1.54,0.837-3.127,1.057-4.757
                c1.037-7.674-0.978-15.292-5.671-21.451c-0.408-0.535-0.838-1.048-1.277-1.55c1.429-7.666,1.634-15.246,1.634-21.185
                c0-29.557-9.536-57.748-27.111-80.932c4.323-7.102,4.264-16.164-0.154-23.223c8.276-1.702,16.845-0.432,24.386,3.776
                c11.268,6.285,18.268,18.203,18.268,31.105c0,0.621-0.021,1.224-0.05,1.828l-1.225,23.661
                C379.801,202.914,387.621,238.253,404.357,269.887z M358.442,240.019c2.913,3.822,4.163,8.55,3.519,13.312
                c-0.643,4.763-3.102,8.989-6.924,11.902c-1.761,1.342-3.714,2.331-5.774,2.944c2.037-9.491,3.139-20.138,3.433-33.087
                C354.913,236.288,356.869,237.955,358.442,240.019z M329.446,110.367c2.647,2.651,3.666,6.345,3.052,9.796
                c-0.975-1.067-1.962-2.126-2.974-3.166l-0.149-0.152c-5.92-6.039-13.839-9.899-22.299-10.871l-0.244-0.028l-0.708-1.32
                c-0.053-0.1-0.112-0.196-0.166-0.296l2.494-1.739l0.377-0.254c4.374-2.914,10.25-2.331,13.97,1.384L329.446,110.367z
                    M296.43,109.823l2.067,3.857c0.852,1.589,2.429,2.66,4.22,2.866l3.104,0.356c5.963,0.685,11.538,3.399,15.699,7.644
                c0.004,0.004,0.092,0.094,0.096,0.098c22.526,23.133,34.931,53.666,34.931,85.973c0,4.23-0.107,8.95-0.652,13.802
                c-2.478-1.096-5.123-1.853-7.883-2.225c-0.175-0.024-2.318-0.063-3.195-0.091c-47.204-1.473-55.876-41.926-57.186-50.297
                l3.291-6.188c1.426-2.682,0.409-6.012-2.273-7.438c-2.683-1.427-6.012-0.408-7.438,2.273l-8.382,15.759
                c-12.986,24.415-40.669,36.306-67.316,28.923c-6.044-1.674-12.287-2.523-18.554-2.523c-12.24,0-24.306,3.245-34.894,9.384
                c-9.875,5.726-21.233,9.241-32.846,10.166c-0.051,0.004-5.885,1.223-8.325,2.318c-0.492-4.49-0.735-9.078-0.735-13.863
                c0-67.944,55.269-123.221,123.204-123.221c17.726,0,34.829,3.681,50.761,10.908l0.165,0.076
                C289.419,100.724,293.731,104.788,296.43,109.823z M134.455,119.997c-0.552-3.406,0.47-7.03,3.061-9.625l6.66-6.651
                c3.08-3.079,7.639-3.997,11.601-2.565C148.019,106.673,140.873,112.996,134.455,119.997z M108.49,240.019
                c1.647-2.162,3.715-3.888,6.063-5.096c0.536,8.373,1.667,22.54,3.68,33.411c-2.267-0.595-4.417-1.639-6.337-3.102
                c-3.822-2.913-6.281-7.139-6.924-11.902C104.328,248.569,105.578,243.842,108.49,240.019z M157.583,221.513
                c8.914-5.168,19.072-7.9,29.376-7.9c5.275,0,10.53,0.714,15.617,2.124c15.196,4.209,31.54,3.102,46.026-3.123
                c12.913-5.549,23.885-14.977,31.362-26.821c1.728,4.943,4.251,10.698,7.91,16.47c8.397,13.245,24.533,28.878,53.856,30.702
                c-0.268,16.474-1.824,28.925-4.952,39.824c-7.835,27.282-23.138,51.242-43.091,67.467c-17.867,14.533-38.665,22.215-60.146,22.215
                c-46.229,0-87.634-36.044-103.031-89.694c-2.967-10.31-4.5-30.712-5.08-40.241C136.798,230.939,147.818,227.174,157.583,221.513z
                    M233.542,373.471c22.949,0,45.125-7.797,64.36-22.552c2.846,1.334,5.647,2.756,8.399,4.263
                c-3.962,4.339-8.186,8.344-12.617,11.947c-17.867,14.533-38.663,22.215-60.14,22.215c-27.146,0-52.787-12.127-72.837-34.288
                c2.746-1.499,5.54-2.914,8.38-4.241C187.934,365.279,210.16,373.471,233.542,373.471z M390.807,390.806
                c-5.359,5.359-10.947,10.407-16.735,15.144c-15.851-26.796-39.277-48.728-67.016-62.795c17.578-16.423,31.245-38.497,39.081-63.301
                c5.611-0.377,10.992-2.385,15.567-5.872c1.78-1.356,3.37-2.894,4.765-4.574l48.049,15.243c0.548,0.174,1.108,0.258,1.663,0.258
                c1.669,0,3.285-0.762,4.346-2.128c1.413-1.821,1.541-4.329,0.32-6.284c-20.44-32.747-30.191-70.473-28.198-109.097l1.226-23.676
                c0.039-0.801,0.064-1.579,0.064-2.38c0-16.887-9.162-32.486-23.909-40.711c-11.753-6.559-25.398-7.674-38.022-3.261l-1.432-1.432
                c-7.417-7.404-19.126-8.565-27.866-2.742l-3.408,2.371c-3.042-2.973-6.576-5.427-10.443-7.194
                c-0.004-0.002-0.113-0.052-0.118-0.054c-17.442-7.913-36.074-11.924-55.378-11.924c-24.508,0-47.5,6.61-67.296,18.133l-1.606-1.189
                l-0.224-0.157c-8.722-5.81-20.429-4.649-27.836,2.757l-1.178,1.177c-12.579-4.334-26.222-3.164-37.978,3.398
                c-14.733,8.217-23.885,23.839-23.885,40.77c0,0.79,0.038,1.609,0.077,2.427l1.231,23.671c1.986,38.483-7.767,76.131-28.204,108.873
                c-1.223,1.958-1.092,4.472,0.327,6.292c1.061,1.362,2.674,2.12,4.339,2.12c0.561,0,1.128-0.086,1.683-0.265l47.435-15.253
                c1.445,1.781,3.11,3.404,4.98,4.829c4.675,3.563,10.189,5.582,15.932,5.894c8.029,25.507,21.648,47.132,38.792,63.16
                c-27.78,14.047-51.237,36.012-67.098,62.878c-5.773-4.726-11.345-9.762-16.69-15.108C34.143,348.784,11,292.913,11,233.486
                c0-59.428,23.143-115.299,65.165-157.321S174.058,11,233.485,11c59.428,0,115.299,23.143,157.321,65.165
                s65.165,97.893,65.165,157.321C455.971,292.913,432.829,348.784,390.807,390.806z"/>
            <path d="M208.636,321.044c6.77,4.559,15.593,7.069,24.843,7.069c9.259,0,18.086-2.511,24.856-7.069
                c2.52-1.697,3.187-5.115,1.49-7.634c-1.696-2.52-5.114-3.187-7.634-1.49c-4.973,3.349-11.618,5.193-18.711,5.193
                c-7.084,0-13.725-1.844-18.699-5.193c-2.52-1.697-5.938-1.03-7.634,1.49C205.45,315.93,206.117,319.347,208.636,321.044z"/>
            <g>
                <path d="M293.563,264.895c1.934-1.686,3.118-3.909,3.537-6.253c1.065,1.031,2.44,1.555,3.819,1.555
                    c1.405,0,2.81-0.535,3.883-1.605c2.151-2.145,2.156-5.627,0.011-7.778c-5.55-5.567-13.802-7.29-21.054-4.566
                    c-1.59,0.406-3.113,1.169-4.434,2.321c-4.508,3.932-4.976,10.774-1.044,15.282C282.213,268.359,289.055,268.826,293.563,264.895z"
                    />
                <path d="M166.056,258.735c1.071,0,2.142-0.33,3.081-0.97c0.179,2.299,1.078,4.561,2.742,6.406
                    c4.005,4.443,10.854,4.798,15.297,0.793c4.443-4.005,4.798-10.854,0.793-15.297c-1.017-1.129-2.219-1.991-3.518-2.587
                    c-6.935-3.782-15.519-3.113-21.802,1.833c-2.387,1.879-2.799,5.337-0.92,7.724C162.816,258.016,164.428,258.735,166.056,258.735z"
                    />
            </g>
        </g>
    </symbol>
    <symbol id="girl6" viewBox="0 0 466.971 466.971">
        <g>
            <path d="M216.626,320.692c4.624,2.568,10.603,3.982,16.835,3.982c6.238,0,12.22-1.414,16.844-3.982
                c2.655-1.475,3.612-4.823,2.138-7.479c-1.477-2.656-4.824-3.613-7.479-2.138c-2.974,1.651-7.166,2.599-11.502,2.599
                c-4.332,0-8.521-0.947-11.494-2.599c-2.657-1.475-6.004-0.519-7.479,2.137C213.014,315.869,213.971,319.217,216.626,320.692z"/>
            <path d="M398.585,68.386C354.485,24.287,295.852,0,233.485,0c-62.366,0-121,24.287-165.099,68.386
                C24.287,112.486,0,171.12,0,233.486s24.287,121,68.386,165.099s102.733,68.386,165.099,68.386c62.367,0,121-24.287,165.1-68.386
                c44.099-44.1,68.386-102.733,68.386-165.099S442.684,112.486,398.585,68.386z M101.619,412.732
                c11.372-19.685,27.087-36.616,45.705-49.441c22.58,28.018,53.741,43.989,86.238,43.989c32.682,0,63.829-15.896,86.21-43.786
                c18.541,12.813,34.194,29.683,45.536,49.272c-37.977,28.048-83.733,43.207-131.822,43.207
                C185.378,455.971,139.605,440.801,101.619,412.732z M191.667,111.632c0.399,0.088,0.797,0.13,1.19,0.13
                c2.524,0,4.823-1.744,5.365-4.316c2.1-9.958,11.76-15.132,13.266-15.845c14.415-6.82,29.635-10.273,45.314-10.273
                c67.944,0,123.221,65.909,123.221,146.921c0,25.964-5.761,51.481-16.661,73.793c-8.74,17.891-20.614,33.424-34.675,45.5
                c-1.004-49.393-27.016-94.914-69.801-120.785l-4.279-2.588c-20.681-12.505-37.633-30.382-49.025-51.696l-11.745-21.973
                c-7.333-13.721-21.538-22.812-37.069-23.726c-3.039-0.181-5.635,2.136-5.813,5.168s2.135,5.635,5.168,5.813
                c5.856,0.344,11.462,2.228,16.299,5.316c-11.513,11.263-32.653,36.729-36.5,74.672c-0.28,2.779-1.972,5.1-4.524,6.209
                c-1.149,0.5-4.145,1.418-7.124-0.849c-0.076-0.058-0.148-0.114-0.226-0.178c-1.297-1.063-2.935-1.574-4.558-1.49
                c-0.848,0.044-4.414,0.934-5,1.051c-14.887,2.954-25.127,17.073-23.068,32.314c1.037,7.674,5,14.485,11.158,19.178
                c5.103,3.888,11.205,5.938,17.511,5.937c0.347,0,0.696-0.023,1.044-0.035c7.956,25.125,21.52,46.921,38.837,63.144
                c-8.319,4.205-16.25,9.119-23.706,14.664c-21.501-28.695-43.274-79.878-49.57-117.35c-7.518-44.748,3.159-86.341,29.293-114.116
                c19.692-20.928,46.914-32.396,76.035-32.39c-1.941,3.072-3.557,6.777-4.542,11.241C186.826,108.042,188.7,110.978,191.667,111.632z
                M180.636,150.421c1.318,1.631,2.496,3.389,3.499,5.266l11.745,21.973c12.323,23.057,30.662,42.395,53.035,55.923l4.279,2.588
                c31.087,18.798,52.587,48.827,60.812,82.989c-20.465,27.557-49.644,43.31-80.44,43.31c-58.357,0-106.183-56.492-109.183-127.375
                c3.724,0.891,7.688,0.561,11.397-1.052c6.162-2.677,10.41-8.499,11.085-15.191C150.43,183.691,170.338,160.327,180.636,150.421z
                M307.232,343.245c3.263-3.052,6.4-6.316,9.398-9.787c0.659,5.146,1.036,10.356,1.092,15.615
                C314.303,347.003,310.802,345.061,307.232,343.245z M233.566,373.471c23.204,0,45.521-7.939,64.518-22.467
                c4.226,1.988,8.347,4.175,12.36,6.538c-20.22,24.692-47.939,38.736-76.882,38.736c-28.762,0-56.488-14.113-76.897-38.927
                c4.04-2.37,8.19-4.561,12.445-6.548C187.755,365.149,209.87,373.471,233.566,373.471z M113.351,234.289
                c0.416,11.919,2.023,23.471,4.685,34.486c-3.165-0.369-6.189-1.56-8.79-3.542c-3.822-2.913-6.281-7.14-6.924-11.902
                C101.202,245.047,105.95,237.316,113.351,234.289z M390.807,390.807c-5.359,5.359-10.947,10.407-16.735,15.144
                c-10.793-18.245-25.1-34.234-41.887-47.024c16.805-13.446,30.919-31.294,41.06-52.055c11.63-23.807,17.777-50.993,17.777-78.621
                c0-87.078-60.211-157.921-134.221-157.921c-18.582,0-36.56,4.381-53.461,13.024c-36.346-3.362-71.02,9.462-95.364,35.334
                c-28.512,30.302-40.223,75.308-32.13,123.477c6.671,39.706,29.002,92.114,51.807,122.382
                c-13.746,11.729-25.56,25.719-34.799,41.368c-5.773-4.726-11.345-9.762-16.69-15.108C34.143,348.785,11,292.914,11,233.486
                c0-59.428,23.143-115.299,65.165-157.321S174.058,11,233.485,11c59.428,0,115.299,23.143,157.322,65.165
                c42.021,42.022,65.164,97.893,65.164,157.321C455.971,292.914,432.829,348.785,390.807,390.807z"/>
            <path d="M156.921,252.709c0.95,0.649,2.03,0.96,3.1,0.96c1.755,0,3.479-0.838,4.545-2.396c1.035-1.513,2.334-2.816,3.863-3.873
                c1.153-0.797,2.385-1.414,3.661-1.856c-0.099,2.276,0.505,4.601,1.901,6.619c3.402,4.92,10.148,6.151,15.069,2.749
                s6.205-10.186,2.75-15.069c-1.069-1.511-2.382-2.917-4.03-3.743c-8.155-4.083-18.104-2.936-25.605,2.251
                c-2.64,1.825-4.89,4.083-6.687,6.712C153.771,247.572,154.414,250.995,156.921,252.709z"/>
        </g>
    </symbol>
    <symbol id="girl7" viewBox="0 0 466.971 466.971">
        <path d="M398.585,68.386C354.485,24.287,295.852,0,233.485,0s-121,24.287-165.099,68.386S0,171.119,0,233.486
        s24.287,121,68.386,165.099s102.733,68.386,165.099,68.386s121-24.287,165.1-68.386c44.1-44.1,68.386-102.733,68.386-165.099
        S442.685,112.486,398.585,68.386z M101.619,412.731c10.871-18.817,25.71-35.117,43.26-47.72
        c5.314,17.353,15.738,32.971,29.901,44.584c16.489,13.521,37.331,20.967,58.687,20.967c21.343,0,42.174-7.437,58.656-20.939
        c14.157-11.599,24.583-27.2,29.907-44.536c17.554,12.604,32.399,28.889,43.277,47.677c-37.977,28.048-83.733,43.207-131.822,43.207
        C185.378,455.971,139.605,440.801,101.619,412.731z M331.514,132.761c0.529,2.175,2.323,3.813,4.537,4.141l5.511,0.818
        c2.114,0.314,3.957,1.607,4.971,3.489l1.947,3.614c10.128,18.846,15.482,40.179,15.482,61.693c0,6.724-0.576,13.219-1.69,19.419
        c-0.591-0.348-1.346-0.711-2.163-1.064c-3.473-1.501-7.162-2.441-10.919-2.883l-0.289-0.034
        c-31.865-3.744-38.315-32.867-39.252-38.362c3.339-3.891,6.399-8.067,9.128-12.517c1.522-2.482,1.089-5.808-1.252-7.539
        c-2.64-1.951-6.315-1.185-7.981,1.553c-14.913,24.494-40.912,39.905-69.55,41.225c-21.709,1.008-42.588,8.115-60.379,20.555
        c-17.803,12.447-31.649,29.616-40.044,49.652l-9.047,21.613c-0.491,1.174-1.475,1.288-2.022,1.246
        c-0.545-0.039-1.509-0.288-1.831-1.523l-16.076-61.671c-0.832-3.194-1.566-6.528-2.179-9.898
        c-6.577-36.635,3.135-74.339,26.646-103.445c23.068-28.557,57.226-45.652,93.718-46.901c1.485-0.052,3.012-0.078,4.54-0.078
        c35.667,0,68.998,14.141,93.83,39.794c0.005,0.005,0.076,0.079,0.081,0.084c2.564,2.66,3.865,6.237,3.568,9.814
        C330.548,128.583,331.351,132.089,331.514,132.761z M358.455,265.233c-1.736,1.323-3.666,2.284-5.695,2.899
        c-0.242,0.055-0.478,0.128-0.707,0.214c-1.011,0.261-2.046,0.427-3.093,0.507c2.693-11.124,4.31-22.796,4.711-34.841
        c3.227,1.161,6.061,3.215,8.188,6.007c2.913,3.822,4.163,8.55,3.519,13.312C364.736,258.094,362.277,262.32,358.455,265.233z
        M149.717,280.77c3.992-9.527,9.359-18.327,15.882-26.176c0.494,0.21,1.028,0.351,1.59,0.408c0.631,0.065,1.201,0.072,1.575,0.072
        c2.164,0,4.3-0.362,6.343-1.055c-0.602,2.259-0.489,4.727,0.503,7.043c2.355,5.499,8.722,8.047,14.221,5.692
        c5.499-2.355,8.047-8.722,5.692-14.221c-0.656-1.531-1.63-2.823-2.802-3.854c-3.425-3.619-8.099-5.853-13.06-6.178
        c-0.734-0.054-1.466-0.058-2.195-0.029c2.694-2.331,5.512-4.533,8.453-6.59c16.083-11.245,34.958-17.67,54.584-18.581
        c22.587-1.041,43.713-9.863,60.131-24.518c1.218,3.902,3.117,8.735,6.032,13.688c5.762,9.792,16.604,21.8,36.066,25.642
        c-1.733,72.245-50.073,130.357-109.246,130.357c-36.853,0-71.886-23.569-92.247-61.448L149.717,280.77z M233.485,373.471
        c23.645,0,45.716-8.293,64.334-22.59c5.011,2.345,9.881,4.966,14.591,7.836c-9.317,35.478-41.916,60.846-78.944,60.846
        c-37.061,0-69.669-25.4-78.964-60.921c4.663-2.84,9.482-5.435,14.441-7.759C187.901,365.448,210.156,373.471,233.485,373.471z
        M390.807,390.806c-5.359,5.359-10.947,10.407-16.735,15.144c-15.868-26.824-39.325-48.774-67.103-62.839
        c17.36-16.236,30.956-38.073,38.922-63.25c0.574,0.034,1.148,0.058,1.72,0.058c0.294,0,0.585-0.027,0.878-0.036v11.606
        c0,3.038,2.462,5.5,5.5,5.5s5.5-2.462,5.5-5.5v-14.155c1.974-0.897,3.866-2.007,5.633-3.353
        c6.159-4.693,10.122-11.504,11.159-19.178c0.958-7.091-0.694-14.131-4.653-20.02c2.206-8.881,3.335-18.371,3.335-28.268
        c0-23.325-5.807-46.459-16.795-66.905l-1.95-3.62c-2.646-4.911-7.521-8.332-13.04-9.151l-1.425-0.211
        c0.002-0.057,0.005-0.112,0.01-0.164c0.558-6.729-1.853-13.42-6.601-18.345c-0.006-0.006-0.079-0.082-0.085-0.088
        c-26.945-27.837-63.083-43.167-101.756-43.167c-1.655,0-3.312,0.029-4.919,0.085c-39.68,1.358-76.819,19.94-101.895,50.982
        c-25.519,31.59-36.058,72.522-28.914,112.314c0.665,3.651,1.458,7.256,2.359,10.716l16.076,61.67
        c1.433,5.504,6.025,9.32,11.697,9.723c0.327,0.023,0.651,0.035,0.973,0.035c1.776,0,3.475-0.355,5.033-1.005
        c7.28,13.047,16.098,24.379,26.072,33.73c-27.714,14.05-51.114,35.984-66.947,62.802c-5.773-4.726-11.345-9.762-16.69-15.108
        C34.143,348.784,11,292.913,11,233.486c0-59.428,23.143-115.299,65.165-157.321S174.058,11,233.485,11
        c59.428,0,115.299,23.143,157.321,65.165s65.165,97.893,65.165,157.321C455.971,292.913,432.829,348.784,390.807,390.806z"/>
        <path d="M277.103,266.755c5.499,2.355,11.866-0.193,14.221-5.692c0.992-2.316,1.105-4.784,0.503-7.044
        c6.492,2.189,13.765,0.851,19.043-3.527c2.338-1.939,2.661-5.407,0.722-7.745c-1.94-2.339-5.408-2.661-7.745-0.722
        c-2.386,1.979-5.684,2.571-8.609,1.542c-7.49-2.631-15.77-0.54-21.116,5.192c-1.132,1.018-2.072,2.284-2.711,3.775
        C269.056,258.033,271.604,264.4,277.103,266.755z"/>
        <path d="M233.462,335.26c6.746,0,13.132-2.563,17.982-7.218c2.191-2.104,2.263-5.585,0.16-7.777
        c-2.104-2.191-5.585-2.262-7.777-0.16c-2.792,2.679-6.472,4.155-10.365,4.155c-3.887,0-7.565-1.476-10.356-4.154
        c-2.19-2.103-5.673-2.032-7.776,0.159s-2.032,5.673,0.159,7.776C220.338,332.696,226.721,335.26,233.462,335.26z"/>
    </symbol>
    <symbol id="girl8" viewBox="0 0 466.971 466.971">
        <g>
            <path d="M255.357,307.826c-5.894,5.659-13.665,8.775-21.88,8.775c-8.205,0-15.97-3.116-21.865-8.775
                c-2.19-2.103-5.673-2.032-7.776,0.159s-2.032,5.673,0.159,7.776c7.954,7.635,18.424,11.839,29.482,11.839
                c11.069,0,21.545-4.205,29.498-11.839c2.191-2.104,2.262-5.585,0.159-7.777C261.031,305.794,257.549,305.723,255.357,307.826z"/>
            <path d="M306.846,239.11c-8.367-3.631-18.158-2.572-25.556,2.765c-0.677,0.488-1.194,1.108-1.574,1.792
                c-0.66,0.785-1.223,1.673-1.652,2.662c-2.382,5.487,0.136,11.866,5.623,14.248s11.866-0.136,14.248-5.623
                c0.977-2.251,1.118-4.649,0.579-6.863c1.338,0.187,2.666,0.552,3.952,1.11c1.704,0.739,3.232,1.765,4.541,3.049
                c1.071,1.05,2.461,1.573,3.851,1.573c1.426,0,2.851-0.551,3.927-1.649c2.127-2.169,2.093-5.651-0.076-7.778
                C312.435,242.166,309.789,240.387,306.846,239.11z"/>
            <path d="M398.585,68.386C354.485,24.287,295.852,0,233.485,0s-121,24.287-165.099,68.386S0,171.119,0,233.486
                s24.287,121,68.386,165.099s102.733,68.386,165.099,68.386s121-24.287,165.1-68.386c44.1-44.1,68.386-102.733,68.386-165.099
                S442.685,112.486,398.585,68.386z M62.82,376.225c9.443-14.884,17.654-30.657,24.399-46.963
                c15.398-37.218,23.25-76.493,23.338-116.733c0.072-33.194,12.802-64.488,35.845-88.119c23.142-23.732,53.993-36.877,86.87-37.013
                c17.114-0.088,33.554,3.257,48.958,9.895c10.228,4.406,22.319,19.603,27.407,28.54c1.025,1.801,3.483,8.158,3.483,8.158
                l14.226,38.967c-2.247-0.86-4.763-1.764-7.553-2.674c-26.792-8.733-55.515-6.711-80.878,5.693
                c-25.397,12.42-44.577,33.866-54.007,60.387c-15.898,44.714-41.407,84.417-71.827,111.795c-2.258,2.032-2.441,5.509-0.409,7.767
                c1.086,1.207,2.584,1.821,4.09,1.821c1.311,0,2.626-0.466,3.677-1.412c9.167-8.25,17.898-17.565,26.084-27.751
                c4.164,5.263,8.627,10.098,13.335,14.501c-27.738,14.049-51.16,35.995-67.003,62.83c-5.773-4.726-11.345-9.762-16.69-15.108
                C71.475,386.117,67.034,381.245,62.82,376.225z M355.711,223.1c-0.667-0.194-1.346-0.358-2.031-0.505
                c-0.03-0.335-11.443-40.882-11.443-40.882c-0.038-0.133-16.701-45.792-16.701-45.792c5.471,2.149,10.089,6.134,13.394,11.669
                c10.833,18.153,16.56,39.948,16.56,63.028C355.489,210.617,355.687,221.768,355.711,223.1z M332.308,187.028l10.415,36.883
                c0.037,1.376,0.06,2.777,0.06,4.183c0,74.096-49.031,134.377-109.299,134.377c-30.388,0-59.352-15.588-80.022-42.905
                c17.103-23.234,31.446-50.366,41.811-79.518c8.461-23.796,25.676-43.042,48.475-54.191c22.782-11.141,48.578-12.958,72.637-5.116
                C324.023,183.23,329.549,185.7,332.308,187.028z M233.483,373.471c23.646,0,45.717-8.292,64.336-22.59
                c17.429,8.154,33.159,19.605,46.316,33.527c-19.296,27.847-50.648,44.352-84.707,44.352c-45.849,0-85.888-30.085-98.796-73.665
                c2.742-1.499,5.533-2.913,8.368-4.24C188.071,365.483,210.372,373.471,233.483,373.471z M306.968,343.112
                c17.361-16.236,30.958-38.073,38.925-63.251c0.574,0.034,1.147,0.058,1.718,0.058c0.485,0,0.966-0.035,1.448-0.059
                c-5.914,25.033-15.032,49.13-27.197,71.809C317.057,348.561,312.086,345.703,306.968,343.112z M358.455,265.233
                c-2.792,2.129-6.073,3.358-9.492,3.621c2.693-11.124,4.31-22.795,4.712-34.84c3.226,1.161,6.058,3.215,8.186,6.006
                c2.913,3.822,4.163,8.55,3.519,13.312C364.736,258.094,362.277,262.32,358.455,265.233z M101.619,412.731
                c12.099-20.943,29.118-38.763,49.314-51.845c15.109,46.79,58.697,78.874,108.496,78.874c36.778,0,70.711-17.382,92.172-46.851
                c5.075,6.231,9.663,12.871,13.707,19.855c-37.977,28.048-83.733,43.207-131.822,43.207
                C185.378,455.971,139.605,440.801,101.619,412.731z M390.807,390.806c-5.359,5.359-10.947,10.407-16.735,15.144
                c-11.059-18.696-25.802-35.024-43.125-47.965c13.867-25.598,23.988-52.951,30.133-81.416c1.403-0.744,2.755-1.606,4.042-2.587
                c6.159-4.693,10.122-11.504,11.159-19.178s-0.978-15.292-5.671-21.451c-1.176-1.543-2.485-2.949-3.908-4.205
                c0.097-3.517,0.004-6.998-0.087-10.392c-0.062-2.302-0.125-4.683-0.125-6.994v-1.145c0-25.064-6.264-48.796-18.114-68.655
                c-6.184-10.354-16.16-17.001-27.607-18.517c-5.105-10.382-19.708-29.973-34.184-36.21c-16.625-7.163-34.376-10.746-52.771-10.746
                c-0.195,0-0.391,0-0.586,0c-35.85,0-69.481,14.426-94.7,40.287c-25.051,25.69-38.891,59.657-38.969,95.728
                c-0.085,38.799-7.656,76.667-22.502,112.553c-6.018,14.547-13.238,28.657-21.494,42.052C26.651,328.78,11,282.338,11,233.486
                c0-59.428,23.143-115.299,65.165-157.321S174.058,11,233.485,11c59.428,0,115.299,23.143,157.321,65.165
                s65.165,97.893,65.165,157.321C455.971,292.913,432.829,348.784,390.807,390.806z"/>
        </g>
    </symbol>
</svg>